<?xml version="1.0" encoding="UTF-8"?>
<svg xmlns="http://www.w3.org/2000/svg" version="1.1" viewBox="0 0 800 800">
  <path d="M400,66.67c-184.09,0-333.33,149.23-333.33,333.33s149.24,333.33,333.33,333.33h0c184.09,0,333.33-149.24,333.33-333.33S584.09,66.67,400,66.67ZM400.01,166.66c36.82,0,66.67,29.85,66.67,66.67s-29.85,66.67-66.67,66.67-66.67-29.85-66.67-66.67,29.85-66.67,66.67-66.67ZM609.77,356.37h-.04l-.09.04-.3.13-1.1.46c-.95.39-2.32.96-4.09,1.67-3.52,1.42-8.61,3.44-14.96,5.85-12.68,4.81-30.45,11.23-50.89,17.66-32.97,10.37-74.55,21.31-113.29,24.92v41.3c0,14.39,4.13,28.46,11.91,40.56l84.12,130.85c7.47,11.62,4.1,27.08-7.51,34.55-11.62,7.47-27.08,4.1-34.55-7.51l-78.97-122.84-78.97,122.84c-7.47,11.61-22.94,14.98-34.55,7.51s-14.98-22.93-7.51-34.55l84.12-130.85c7.78-12.1,11.91-26.18,11.91-40.56v-41.3c-38.74-3.6-80.33-14.55-113.29-24.92-20.44-6.42-38.21-12.84-50.89-17.66-6.34-2.41-11.43-4.43-14.96-5.85-1.76-.71-3.14-1.28-4.09-1.67l-1.1-.46-.3-.13-.09-.04-.04-.02c-12.72-5.39-18.65-20.07-13.26-32.78,5.39-12.71,20.06-18.65,32.77-13.26h.01s.05.02.05.02l.21.09.91.38c.81.34,2.05.85,3.67,1.5,3.24,1.3,8,3.19,13.99,5.47,11.99,4.56,28.83,10.64,48.13,16.71,39.27,12.36,86.24,23.85,123.28,23.85s84.01-11.5,123.28-23.85c19.3-6.07,36.14-12.15,48.13-16.71,5.99-2.27,10.76-4.16,14-5.47,1.62-.65,2.85-1.16,3.67-1.5l.91-.38.25-.1c12.71-5.38,27.39.55,32.78,13.26s-.55,27.39-13.26,32.79Z"/>
</svg>