<?xml version="1.0" encoding="UTF-8"?>
<svg  xmlns="http://www.w3.org/2000/svg" viewBox="0 0 800 800">
  <path d="M717.2,50H82.8c-18.11,0-32.8,14.69-32.8,32.8v634.4c0,18.11,14.69,32.8,32.8,32.8h634.4c18.11,0,32.8-14.69,32.8-32.8V82.8c0-18.11-14.69-32.8-32.8-32.8ZM427.28,403.03h-100v281.35h-79.28v-281.35h-99.55v-63.18h278.83v63.18ZM678.98,635.42c-7.07,12.83-17.22,23.7-29.53,31.65-13.26,8.45-27.96,14.39-43.38,17.5-17.17,3.59-34.66,5.36-52.2,5.28-17.99.07-35.96-1.53-53.65-4.8-15.31-2.66-30.16-7.5-44.1-14.38v-76.7c13.36,11.33,28.65,20.18,45.13,26.12,15.77,5.76,32.43,8.72,49.22,8.75,8.56.12,17.1-.76,25.45-2.62,6.41-1.42,12.54-3.88,18.15-7.3,4.48-2.72,8.22-6.51,10.88-11.02,2.39-4.2,3.63-8.96,3.6-13.8.07-6.45-1.95-12.76-5.75-17.97-4.32-5.75-9.62-10.7-15.65-14.62-7.48-4.96-15.35-9.28-23.55-12.92-9.08-4.15-18.88-8.39-29.38-12.73-23.01-8.55-43.57-22.62-59.88-40.97-13.29-16.55-20.28-37.28-19.72-58.5-.44-16.05,3.27-31.93,10.77-46.12,7.08-12.78,17.12-23.68,29.28-31.78,13.09-8.63,27.62-14.83,42.9-18.32,16.91-4,34.23-5.97,51.6-5.88,15.89-.14,31.77.94,47.5,3.22,13.02,1.99,25.8,5.34,38.12,10v71.57c-5.92-4.09-12.2-7.62-18.77-10.55-6.77-3.01-13.76-5.52-20.9-7.5-7.02-1.97-14.17-3.45-21.4-4.42-6.69-.94-13.44-1.43-20.2-1.45-8.04-.08-16.05.76-23.9,2.5-6.39,1.37-12.52,3.76-18.15,7.08-4.61,2.71-8.53,6.44-11.47,10.9-2.71,4.26-4.12,9.22-4.05,14.27-.08,5.49,1.5,10.87,4.53,15.45,3.51,5.04,7.87,9.43,12.9,12.95,6.42,4.57,13.22,8.57,20.32,11.97,8,3.92,17,7.95,27,12.1,12.71,5.26,25.05,11.4,36.92,18.35,10.31,5.99,19.76,13.37,28.08,21.93,7.75,8.04,13.84,17.53,17.92,27.92,9.69,27.79,8.02,58.28-4.65,84.85Z"/>
</svg>