<?xml version="1.0" encoding="utf-8"?>
<!-- Generator: Adobe Illustrator 27.5.0, SVG Export Plug-In . SVG Version: 6.00 Build 0)  -->
<svg version="1.1" id="Capa_1" xmlns="http://www.w3.org/2000/svg" xmlns:xlink="http://www.w3.org/1999/xlink" x="0px" y="0px"
	 viewBox="0 0 947.35 1276.28" style="enable-background:new 0 0 947.35 1276.28;" xml:space="preserve">
<style type="text/css">
	.st0{fill:#F9D1A2;}
	.st1{fill:#D6CAC0;}
	.st2{fill:#EBE0D3;}
	.st3{fill:#F1EADF;}
	.st4{fill:#FAF3EB;}
	.st5{fill:#EEE5CD;}
	.st6{fill:#D5BEAA;}
	.st7{fill:#4E1A16;}
	.st8{fill:#FFF9F2;}
	.st9{fill:#EBE1D4;}
	.st10{fill:#E5E4E4;}
	.st11{fill:#F9F4E5;}
	.st12{fill:#EFE4D5;}
	.st13{fill:#AE8E83;}
	.st14{fill:#EFEFEF;}
	.st15{fill:#D8D8D8;}
</style>
<g>
	<path class="st0" d="M86.76,1125.53c7.85,0,7.85-12.17,0-12.17C78.92,1113.37,78.92,1125.53,86.76,1125.53z"/>
	<path class="st0" d="M254.43,998.24c18.06,0,18.06-28.01,0-28.01C236.36,970.23,236.36,998.24,254.43,998.24z"/>
	<path class="st0" d="M340.96,1119.81c7.43,0,7.43-11.54,0-11.54C333.52,1108.28,333.52,1119.81,340.96,1119.81z"/>
	<path class="st0" d="M249.02,1249.68c7.52,0,7.52-11.66,0-11.66C241.49,1238.01,241.49,1249.68,249.02,1249.68z"/>
	<path class="st0" d="M146.26,1163.53c8,0,8-12.42,0-12.42C138.24,1151.1,138.24,1163.53,146.26,1163.53z"/>
	<path class="st0" d="M681.9,1250.89c1.84,3.94,8.56,3.94,10.39,0c1.1-2.37,1.45-4.47,1.58-7.04c0.44-8.75-14-8.75-13.55,0
		C680.45,1246.41,680.8,1248.52,681.9,1250.89z"/>
	<path class="st0" d="M492.4,1225.7c4.49,0,4.49-6.97,0-6.97C487.9,1218.73,487.9,1225.7,492.4,1225.7z"/>
	<path class="st1" d="M859.65,1164.36c0,61.82-192.44,111.92-429.83,111.92C192.44,1276.28,0,1226.18,0,1164.36
		c0-1.64,0-18.75,0-18.75s198.74-93.17,429.82-93.17c218.5,0,429.83,93.17,429.83,93.17S859.65,1159.44,859.65,1164.36z"/>
	<path class="st2" d="M859.65,1145.62c0,61.81-192.44,111.92-429.83,111.92C192.44,1257.53,0,1207.42,0,1145.62
		c0-61.81,192.44-111.92,429.82-111.92C667.21,1033.69,859.65,1083.8,859.65,1145.62z"/>
	<path class="st1" d="M688.12,1124.23c0,34.46-119.22,62.39-266.28,62.39s-266.27-27.93-266.27-62.39
		c0-34.45,119.21-62.39,266.27-62.39S688.12,1089.78,688.12,1124.23z"/>
	<path class="st3" d="M750.8,715.2l-15.77-7.65l15.74,7.72L750.8,715.2l-15.77-7.65l15.74,7.72l0.08-0.16
		c0.85-1.79,9.71-18.68,22.65-33.35c6.41-7.35,13.78-14.04,20.79-18.32c3.51-2.16,6.89-3.74,10.05-4.75
		c3.17-1.01,6.09-1.49,9.06-1.49h0.47l0.07,0.01c10.09,0.21,19.01,2.56,27.22,6.77c12.25,6.31,23.15,17.07,31.31,32.57
		c8.12,15.46,13.28,35.6,13.27,59.27c0,6.1-0.34,12.44-1.06,19.01l-0.16,1.46l0.17-1.49c-1.74,16.33-7.92,37.55-17.54,59.23
		c-14.34,32.61-36.37,66.5-59.51,90.63c-11.52,12.09-23.29,21.7-33.74,27.76c-5.22,3.04-10.07,5.2-14.32,6.54
		c-4.26,1.35-7.86,1.87-10.85,1.87c-1.41,0-2.7-0.12-3.92-0.33c-4.08-0.71-7.47-1.89-10.61-3.47c-5.44-2.75-10.27-6.92-14.64-12.33
		c-6.54-8.04-11.51-18.84-14.38-27.43c-1.45-4.29-2.43-8-3.01-10.47c-0.29-1.24-0.48-2.17-0.58-2.72l-0.09-0.52l-0.01-0.03
		l-13.23,2.26l13.26-2.1l-0.03-0.16l-13.23,2.26l13.26-2.1l-60.84,9.66c0.15,0.94,1.09,6.62,3.47,15.05
		c1.8,6.33,4.4,14.22,8.22,22.87c5.74,12.95,14.12,27.77,27.3,41.13c6.59,6.65,14.42,12.88,23.59,17.95
		c9.16,5.07,19.66,8.92,31.1,10.87c4.79,0.83,9.6,1.22,14.36,1.22c13.58-0.01,26.55-3.14,38.62-8.07
		c21.13-8.71,39.98-22.79,57.46-39.7c26.11-25.45,49.06-57.7,66.91-91.43c8.91-16.88,16.49-34.13,22.35-51.22
		c5.86-17.1,10.03-34,11.85-50.5l0.01-0.03c0.94-8.69,1.42-17.25,1.42-25.66c-0.01-43.37-12.49-82.32-35.69-111.55
		c-11.59-14.58-25.9-26.64-42.33-35.08c-16.41-8.45-34.9-13.2-54.16-13.57l0.07,0.01c-0.65-0.02-1.26-0.02-1.83-0.02
		c-10.33-0.01-20.17,1.83-29.11,4.83c-15.69,5.3-28.65,13.9-39.5,23.18c-16.24,13.98-28.05,29.73-36.3,42.18
		c-8.2,12.45-12.69,21.65-13.12,22.53L750.8,715.2L750.8,715.2z"/>
	<path class="st4" d="M762.92,557.9c-95.66-34.98-256.93,11.19-341.08,40.35c-84.16-29.16-245.41-75.33-341.07-40.35
		c0,324.39,106.16,515.54,172.75,564.29c66.6,48.75,255.13,51.88,336.63,0C671.66,1070.31,762.92,886.27,762.92,557.9"/>
	<path class="st3" d="M617.45,549.63c8.35,25.1,15.16,50.6,20.46,75.89c14.9,71.15,22.13,146.79-0.62,217.03
		c-19.9,61.49-55.66,117.91-101.86,163.06c-79.9,78.1-198.29,129.16-306.84,93.44c8.7,9.67,17.09,17.41,24.93,23.15
		c66.59,48.75,255.13,51.88,336.63,0c81.51-51.88,172.76-235.92,172.76-564.29C722.54,543.14,670.47,542.86,617.45,549.63z"/>
	<path class="st5" d="M762.92,559.53c0,44.61-152.71,80.77-341.08,80.77c-188.37,0-341.07-36.16-341.07-80.77
		c0-44.62,152.71-80.78,341.07-80.78C610.21,478.75,762.92,514.91,762.92,559.53"/>
	<path class="st6" d="M747.96,553.55c0,11.63-15.89,22.52-43.66,31.92c-56.39,19.09-161.78,31.92-282.46,31.92
		c-120.69,0-226.07-12.83-282.47-31.92c-27.75-9.4-43.64-20.29-43.64-31.92c0-35.24,146.01-63.85,326.11-63.85
		C601.95,489.7,747.96,518.3,747.96,553.55"/>
	<path class="st7" d="M704.3,585.47c-56.39,19.09-161.78,31.92-282.46,31.92c-120.69,0-226.07-12.83-282.47-31.92
		c56.4-19.09,161.78-31.92,282.47-31.92C542.52,553.55,647.91,566.38,704.3,585.47"/>
	<path class="st8" d="M268.87,659.38c-27.82-2.39-54.17,1.35-81.48-7c-17.38-7.5-39.69-27.43-57.24-32.95
		c-25.49-6.2-24.25,25.94-21.98,46.16c7.08,80.69,22.29,160.07,43.62,237.98c12.48,41.11,22.98,82.05,43.92,117.88
		c22.43,41.97,78.07,46.74,103.85,2.92c23.45-40.02-4.75-84.49-23.54-122.14c-17.14-33.51-31.61-74.79-24.22-114.19
		c3.86-21.69,65.54-110.48,38.57-122.81L268.87,659.38z"/>
	<path class="st3" d="M474.56,934.87c-2.91,1.71-2.72,7.04,1.01,7.69c2.24,0.39,4.49-0.45,5.17-2.94
		C481.72,936.07,477.76,933,474.56,934.87z"/>
	<path class="st3" d="M492.64,972.61c-7.45,0-7.45,11.57,0,11.57C500.11,984.18,500.11,972.61,492.64,972.61z"/>
	<path class="st3" d="M576.52,872.2c-3.82-2.24-8.87-0.9-11.1,2.91c-2.64,4.5-0.22,10.56,4.85,11.92c2.82,0.75,5.82-0.01,7.89-2.08
		C581.87,881.25,581.03,874.84,576.52,872.2z"/>
	<path class="st3" d="M542.5,930.02c-5.8,0-5.8,9,0,9C548.31,939.02,548.31,930.02,542.5,930.02z"/>
	<path class="st9" d="M516.58,867.78c-6.33,0-6.33,9.81,0,9.81C522.91,877.59,522.91,867.78,516.58,867.78z"/>
	<path class="st9" d="M600.35,745.86c-2.94,0-3.93,3.36-2.23,5.39c1.54,1.85,2.92,1.85,4.46,0
		C604.28,749.22,603.29,745.86,600.35,745.86z"/>
	<path class="st9" d="M490.65,844.13c-5.96,0-5.96,9.23,0,9.23C496.6,853.37,496.6,844.13,490.65,844.13z"/>
	<path class="st9" d="M450.76,926.84c-3.45,0-4.56,3.9-2.6,6.29c1.47,1.79,3.74,1.79,5.2,0
		C455.31,930.75,454.21,926.84,450.76,926.84z"/>
	<path class="st9" d="M414.64,1004.54c-1.59-1.59-4.53-2.2-6.47-0.83c-1.63,1.14-2.39,2.58-3.28,4.27c-2.2,4.13,2.18,8.52,6.31,6.32
		c0.71-0.38,1.36-0.75,1.98-1.14c1.4-0.57,2.53-1.69,2.82-3.37l0.01-0.05C416.35,1007.81,416.08,1005.99,414.64,1004.54z"/>
	<path class="st9" d="M388.15,1035.01c-1.76-1.75-4.69-1.75-6.44,0c-1.68,1.68-1.49,3.74-0.62,5.68c0.19,0.68,0.71,1.2,1.38,1.39
		c1.94,0.87,4,1.06,5.68-0.61C389.91,1039.7,389.91,1036.77,388.15,1035.01z"/>
	<path class="st9" d="M360.22,975.58c-0.66,0.18-1.27,0.36-1.85,0.71c-1.58,0.97-1.58,3.24,0,4.21c0.58,0.36,1.19,0.55,1.85,0.71
		c1.84,0.49,3.7-0.9,3.7-2.82S362.06,975.09,360.22,975.58z"/>
	<path class="st9" d="M339.06,1052.45c-4.82,0-4.82,7.48,0,7.48S343.88,1052.45,339.06,1052.45z"/>
	<path class="st9" d="M460.73,758.7c-2.94,0-2.94,4.56,0,4.56C463.66,763.26,463.66,758.7,460.73,758.7z"/>
	<path class="st9" d="M526.55,821.02c-4.9,0-4.9,7.6,0,7.6C531.45,828.61,531.45,821.02,526.55,821.02z"/>
	<path class="st9" d="M560.46,839.96c-3.62,0-3.62,5.61,0,5.61C564.07,845.57,564.07,839.96,560.46,839.96z"/>
	<path class="st9" d="M588.38,830.16c-3.39,0-3.39,5.26,0,5.26C591.77,835.42,591.77,830.16,588.38,830.16z"/>
	<path class="st9" d="M561.14,774.25l-0.14-0.12l0.02-0.81c-0.19-1.71-1.19-2.78-2.93-2.93c-2.18-0.2-3.74,1.72-4.46,3.53
		c-0.84,2.1,0.97,4.2,2.14,5.71c1.28,1.64,4.05,1.32,5.37,0C562.48,778.3,562.79,775.53,561.14,774.25z"/>
	<path class="st9" d="M569.53,691.9l-0.84,0.15c-3.11,0.54-3.11,5.71,0,6.25l0.84,0.15C575,699.38,575,690.95,569.53,691.9z"/>
	<path class="st9" d="M600.35,682.39c-3.61,0-3.61,5.61,0,5.61C603.97,687.99,603.97,682.39,600.35,682.39z"/>
	<path class="st9" d="M502.62,772.2c-3.54,0-3.54,5.5,0,5.5S506.16,772.2,502.62,772.2z"/>
	<path class="st9" d="M432.81,889.7c-1.74,0-3.55,1.9-2.82,3.7c0.53,1.31,0.99,2.65,1.71,3.86c0.49,0.83,1.73,0.83,2.22,0
		c0.71-1.22,1.17-2.56,1.7-3.86C436.35,891.61,434.54,889.7,432.81,889.7z"/>
	<path class="st9" d="M384.93,939.05c-4.44-0.18-4.44,7.07,0,6.89c2.21-0.09,4.9-0.66,4.9-3.45
		C389.83,939.7,387.14,939.14,384.93,939.05z"/>
	<path class="st10" d="M583.29,97.1c-3.79,15.66-12.43,29.54-23.33,40.2c-24.59,24.17-54.09,38.02-81.32,52.31
		c-17.14,8.95-63.56,33.43-70.29,62.5c-10.15,44.16,53.66,44.89,70.29,46.08c25.63,1.83,68.03,2.59,37.45,51.62
		c-17.75,28.4-57.32,43.42-82.09,52.92c-31.7,12.22-63.21,24.63-95,38.96c-16.56,7.51-36.89,21.99-40.52,42.5
		c38.26-3.52,79.86-5.45,123.36-5.45c5.15,0,10.28,0.03,15.37,0.08c25.69-9.83,56.85-8.21,82.31-16.75
		c23.84-7.98,43.31-18.76,64.28-35.91c8.7-7.12,17.08-18.33,23.52-31.81c-7.02-0.17-13.36-1.11-19.78-2.06
		c-7.07-1.04-14.26-2.09-22.55-2.09c-14.97,0-33.57,3.4-61.74,16.35c-36.38,16.71-48.95,35.86-53.09,44.92
		c-0.65,1.73-1.28,3.49-1.89,5.28c0,0,0.38-1.96,1.89-5.28c17.62-46.88,50.05-73.17,77.77-87.04c31.91-15.95,49.88-7.3,62.12-26.89
		c21.09-33.76-8.15-34.34-25.84-35.61c-11.44-0.79-55.44-1.29-48.44-31.75c4.64-20.04,36.63-36.91,48.44-43.14
		c18.79-9.8,39.12-19.4,56.09-36c14.41-14.13,23.07-36.35,13.46-59.76C625.46,111.13,595.42,110.43,583.29,97.1 M505.38,0
		c16.86,20.36,61.86,20.87,74.13,50.62c6.56,15.98,7.24,31.59,3.96,45.76c24.41,0.84,63.9,14.66,89.68,41.22
		c-0.12-1.55-0.26-3.14-0.44-4.76C663.09,45.9,558.46,1.22,505.38,0"/>
	<path class="st11" d="M421.84,478.75c-43.5,0-85.1,1.93-123.36,5.45c-0.58,3.27-0.74,6.69-0.38,10.27
		c36.99-2.97,77.4-4.65,119.74-4.76c5.92-4.74,12.44-8.22,19.37-10.87C432.12,478.78,426.99,478.75,421.84,478.75"/>
	<path class="st12" d="M417.84,489.7c-42.34,0.1-82.75,1.78-119.74,4.76c0.84,8.55,4.59,17.95,12.4,28.16
		c10.28,13.49,24.35,24.28,39.46,32.48c18.53-0.81,37.67-1.33,57.24-1.49c-15.34-14.19-21.89-34.79,7.94-61.61
		C416.02,491.2,416.92,490.44,417.84,489.7"/>
	<path class="st13" d="M452.66,576.9c0.16,0.02,0.28,0.04,0.36,0.04c0.04,0,0.07,0,0.09-0.01L452.66,576.9 M407.2,553.61
		c-19.57,0.17-38.7,0.68-57.24,1.49c19.89,10.8,41.59,17.12,58.87,19.25l43.83,2.55C448.91,576.28,423.24,568.45,407.2,553.61"/>
	<path class="st14" d="M673.14,137.59c4.13,54.69-30.18,64.94-62.97,78c-20.03,8.04-59.8,32.92-56.35,59.7
		c3.45,26.83,48.41,1.62,60.49,36.06c9.8,27.98,4.46,59.07-7,83.01c0.71,0.02,1.42,0.03,2.14,0.03c7.86,0,16.62-1.04,27.28-4.15
		c20.57-5.98,34.57-38.75,24.02-68.92c-8.34-23.72-44.31-16.01-44.71-35.11c-0.37-19.1,18.65-31.95,28.48-36.68
		c25.62-12.36,58.66-14.86,53.5-61.55C695.83,167.92,686.26,151.11,673.14,137.59 M582.65,96.36c0.2,0.25,0.42,0.5,0.64,0.75
		c0.06-0.24,0.12-0.48,0.18-0.72C583.2,96.37,582.92,96.36,582.65,96.36"/>
	<path class="st15" d="M450.17,451.49c-1.51,3.32-1.89,5.28-1.89,5.28C448.89,454.98,449.52,453.22,450.17,451.49 M583.47,96.38
		c-0.06,0.24-0.12,0.48-0.18,0.72c12.13,13.33,42.16,14.03,50.47,34.21c9.62,23.41,0.95,45.63-13.46,59.76
		c-16.96,16.6-37.3,26.19-56.09,36c-11.81,6.23-43.8,23.1-48.44,43.14c-7.01,30.46,37,30.96,48.44,31.75
		c17.7,1.27,46.93,1.85,25.84,35.61c-12.24,19.59-30.21,10.94-62.12,26.89c-27.72,13.87-60.15,40.16-77.77,87.04
		c4.13-9.06,16.71-28.21,53.09-44.92c28.17-12.95,46.77-16.35,61.74-16.35c8.29,0,15.47,1.05,22.55,2.09
		c6.42,0.95,12.76,1.89,19.78,2.06c11.45-23.94,16.8-55.03,7-83.01c-12.07-34.44-57.03-9.23-60.49-36.06
		c-3.45-26.77,36.31-51.65,56.35-59.7c32.79-13.06,67.1-23.3,62.97-78C647.37,111.04,607.88,97.22,583.47,96.38"/>
</g>
</svg>
