<?xml version="1.0" encoding="utf-8"?>
<!-- Generator: Adobe Illustrator 27.5.0, SVG Export Plug-In . SVG Version: 6.00 Build 0)  -->
<svg version="1.1" id="OBJECTS" xmlns="http://www.w3.org/2000/svg" xmlns:xlink="http://www.w3.org/1999/xlink" x="0px" y="0px"
	 viewBox="0 0 474.7 455.8" style="enable-background:new 0 0 474.7 455.8;" xml:space="preserve">
<style type="text/css">
	.st0{fill:#2A1E17;}
	.st1{clip-path:url(#SVGID_00000075144010189310070510000011409949458229382831_);}
	.st2{fill:#FFFFFF;}
	.st3{fill:#A0C6F4;}
	.st4{fill:none;stroke:#2A1E17;stroke-linecap:round;stroke-linejoin:round;}
	.st5{fill:#EFB08E;}
	.st6{fill:#2A1E33;}
	.st7{fill:#7595EC;}
	.st8{fill:#FF8A66;}
	.st9{fill:#FCDD5E;}
	.st10{fill:none;stroke:#2A1E33;stroke-linecap:round;stroke-linejoin:round;}
	.st11{fill:none;stroke:#FFFFFF;stroke-linecap:round;stroke-linejoin:round;}
	.st12{fill:#FF6D66;}
	.st13{fill:#FAD8B0;}
	.st14{fill:#C6CBCB;}
	.st15{fill:#FFF7DC;}
	.st16{fill:#FFE1C0;}
	.st17{fill:#FFFFFF;stroke:#2A1E17;stroke-linecap:round;stroke-linejoin:round;}
	.st18{fill:#91BA83;}
	.st19{fill:none;stroke:#FFFFFF;stroke-width:0.67;stroke-linecap:round;stroke-linejoin:round;}
	.st20{fill:#96BD89;}
	.st21{fill:none;stroke:#FF6D66;stroke-linecap:round;stroke-linejoin:round;}
	.st22{fill:none;stroke:#FAD8B0;stroke-miterlimit:10;}
	.st23{fill:none;stroke:#A0C6F4;stroke-linecap:round;stroke-linejoin:round;}
</style>
<circle class="st0" cx="938.8" cy="354.2" r="2.6"/>
<g>
	<defs>
		<rect id="SVGID_1_" x="18.9" width="455.8" height="455.8"/>
	</defs>
	<clipPath id="SVGID_00000018935016747723580480000016291453431865789099_">
		<use xlink:href="#SVGID_1_"  style="overflow:visible;"/>
	</clipPath>
	<g style="clip-path:url(#SVGID_00000018935016747723580480000016291453431865789099_);">
		<g>
			<path class="st2" d="M324.6,154.8c-32.4-30.4-70.4-38.2-80.4-39.8c6.8-18.2,17.2-45.3,19.8-49.3c0.8-0.1,2.5-0.3,5.1-0.3
				c7.4,0,23.1,1.5,46,11.8c32.8,14.7,41.7,31.5,43.5,35.6L324.6,154.8L324.6,154.8z M264.3,65.3L264.3,65.3z"/>
			<path class="st3" d="M269.1,67.3c7.2,0,22.7,1.5,45.1,11.6c29.8,13.4,39.5,28.4,42,33.5l-31.8,39.4
				c-19.1-17.4-39.8-27.1-54.1-32.1c-10.1-3.6-18.4-5.4-23.4-6.3c7.5-20.1,15.6-40.7,18.3-45.9C266.2,67.4,267.5,67.3,269.1,67.3
				 M269.1,63.3c-4,0-6.1,0.4-6.1,0.4c-2.3,0.8-21.5,52.8-21.5,52.8s45.6,4.6,83.3,41.1l36-44.6c0,0-6-20.3-45-37.8
				C293.1,65,277.2,63.3,269.1,63.3L269.1,63.3z"/>
		</g>
		<path class="st4" d="M248.2,120.6c0,0,44.8,4.5,72.4,29.9"/>
		<polygon class="st3" points="286.9,118.4 303.6,85.9 320.8,119.8 		"/>
		<polygon class="st4" points="290.1,118 306.9,85.5 324,119.4 		"/>
		<path class="st4" d="M274.5,61.4c0,0,50.2,4.5,81.5,41.6"/>
		<path class="st0" d="M300.1,205.4c-2.8-2-4.6-3.4-4.6-3.4c0.8-1,12.9-13.9,19.9-24.3C315.4,177.7,301.2,206.2,300.1,205.4
			L300.1,205.4z"/>
		<path class="st4" d="M128.8,111.5c1.4,2.2,1.9,1.4,5.8,1.1c3.9-0.3,9.4,2.5,11.4,7.3c1.9,4.8,1.4,5.5,0.3,6.1s-8.5,1.5-8.8,3"/>
		<polygon class="st5" points="229.6,355 226.1,349.1 213.8,369.7 217,372.2 		"/>
		<path class="st5" d="M147.5,303.9c0,0-6.4-10.4-3.7-15.5l20.4,2.2L147.5,303.9z"/>
		<path d="M147.5,303.9l1.2,2.8l-3.8,14.7c-0.5,1.9,0.1,3.8,1.6,5.1l0,0l18.7-27.6c1.8-2.6,1.4-6.1-1-8.3l-4.2-3.9L147.5,303.9
			L147.5,303.9z"/>
		<path class="st6" d="M137.5,129c5.9-0.1,13.3-0.5,11.8-5s-7-15.6-19.7-12.2c0,0-4.4,3.7,1.1,10.4C136.3,128.8,137.5,129,137.5,129
			L137.5,129z"/>
		<path class="st7" d="M167.1,290.8c0,0-10-29.5-1.5-42.4c7-10.7,29.8,6.7,32.9,9l16.3-29.5c0,0-3.8-5.3-13-10.5
			s-47.4-20.6-65.4,7.7c-6.6,10.5-6.7,55.4,6,72.6L167.1,290.8L167.1,290.8z"/>
		<path class="st4" d="M167.1,290.8c0,0-10-29.5-1.5-42.4c7-10.7,29.8,6.7,32.9,9"/>
		<path class="st7" d="M214.8,227.9c-7.4,7.8-29.4,45.8-34.4,64c-6.6,24.3-4.1,44.5,32.2,84l17.6-25.6c0,0-12.4-18.8-10-36.5
			c3.3-25.6,21.5-50.4,30.8-66.1L214.8,227.9L214.8,227.9z"/>
		<polygon class="st0" points="217.6,231.2 246.8,254.2 255.6,240.9 		"/>
		<path class="st8" d="M385.5,207.1c4.6,1,8,2.7,10.4,5.2s1.3,3.8,0.4,4.6s-4.2-0.1-7.2-2.7S385.5,207.1,385.5,207.1z"/>
		<path class="st5" d="M295.6,202c0.8-1,12.9-13.9,19.9-24.3c0,0,21.1,23.7,23.5,24.5c0.9,0.3,6,0.2,12.5,0.1
			c10.9-0.1,25.4-0.2,28.5,1.4c5.1,2.5,8.2,3.8,9.4,7.4s1.8,5.9-1.3,6.1c-3.6,0.2-5.9-4.3-5.9-4.3s-2.9,1.8-10.5,4.6
			c0,0-27.1,10.5-45.2,5.4C321.6,221.5,295.6,202,295.6,202z"/>
		<path class="st5" d="M131.2,107.3c-2.3,0.9-3.7,1.9-2.4,4.2c1.4,2.2,1.9,1.4,5.8,1.1c3.9-0.3,9.4,2.5,11.4,7.3
			c1.9,4.8,1.4,5.5,0.3,6.1s-8.5,1.5-8.8,3s3,5.9,9.9,5.6l1.6-0.3c0,0,14.5,14.1,16.6,16.2s17.5,12.5,26,14.6
			c6.4,1.6,19.5-0.5,27.3-2c3.8-0.7,6.4-1.4,6.4-1.4s-5.9-10.6-7.1-26.9c0,0-14.1,2.3-23.4,4.3c0,0-21.8-12.2-32.5-17.6
			c0,0-9.3-11.4-13.6-12.9S134.4,106.1,131.2,107.3L131.2,107.3z"/>
		<path class="st0" d="M218.9,163.2c3.8-0.7,6.4-1.4,6.4-1.4s-7.1-9-8.3-25.3c0,0-3.2,3.5-2.2,12.7
			C216.1,160.9,218.9,163.2,218.9,163.2L218.9,163.2z"/>
		<path class="st9" d="M216.7,134.7c0,0,0.2,19.9,5.5,28.2l1.9-0.8c0,0-25.2,29.4-33.3,48.7c-1.3,3.1,52.2,37.4,60.1,36.9
			c0,0,26.1-39.8,35-51.6l9.6,7.4c0,0,18.8-19.1,19.8-25.8c0,0-18.2-22.1-33-28.6c-14.9-6.5-28.1-17.6-44.1-17.3
			C224.4,132.1,216.7,134.7,216.7,134.7L216.7,134.7z"/>
		<polygon class="st0" points="295.6,203.5 286,196.1 287.5,191.9 		"/>
		<path class="st5" d="M310.2,124.7c-1.7,5.2-6.5,20.3-11.9,22.2s-11-0.5-11-0.5l-5.8,2.9c-0.6,1.9-5.2,3.6-11.1,3.8
			c-4.4,0.2-7-5.4-5.7-9.5c0.6-1.9,2.8-11,2.8-11s4.7-17.2,9-20.7s8.3-7.1,19.8-2.4C313.7,116.7,310.2,124.7,310.2,124.7
			L310.2,124.7z"/>
		<path class="st6" d="M275.4,125.5c-0.8,3.2-4.1,9.6-6.3,8.5s-3-4.1-1.4-9.8s2.8-18.5,7.2-20.8s6.3,0.4,6.3,0.4s-1.9-9.4,3.7-10.6
			c0,0,1.9-0.9,1.1,5.5c0,0,2.2-5.9,9.2-5.1s9.5,10.6,9.5,10.6s0.5-2.7,3.7-2.7s8.1,4.8,6.9,10c0,0,8.2-2.6,12.6,4
			c4.4,6.5,3.9,13.7-6.7,16.6c-11,2.9-10.9-9.9-12.6-11.6s-3.5-3.6-9.6-1.3s-12.6-4.5-12.6-4.5s-1,8.2-2,9s-3.1,1.8-2.6-2.1
			s1.1-3.5,0.8-4.5s-2.1-4.3-5.8-1.4C272.8,119,275.4,125.5,275.4,125.5L275.4,125.5z"/>
		<path class="st10" d="M277.2,126.9c-2.5-2.1-4.1-5.7-2-9.3s5.7-4.1,6.8-2.7s1.5,3.7,0.5,6.4"/>
		<path d="M217,372.2l1.2,2.8l-3.8,14.7c-0.5,1.9,0.1,3.8,1.6,5.1l0,0l18.7-27.6c1.8-2.6,1.4-6.1-1-8.3l-4.2-3.9L217,372.2
			L217,372.2z"/>
		<path class="st10" d="M281.2,103.8c0,0-1.4-4.7-5.7-5.9"/>
		<line class="st4" x1="190.2" y1="209.4" x2="242" y2="137.1"/>
		<path class="st4" d="M263.4,142.2c-1.9,2.4-2.7,12.9,5.9,13.5s14.1-3.1,14.1-3.1"/>
		<path class="st4" d="M148.7,108.8c0,0,5.9,7.8,6.9,10.6"/>
		<path class="st4" d="M370.4,213.8c0,0,4,3.3,11.8-1c2.9-1.5,0.8-5.1-2.8-4.2s-7.9-0.5-7.9-0.5"/>
		<path class="st4" d="M386.9,207.5c0,0,3.8,4.4,3.7,7.1"/>
		<path class="st4" d="M331,207.1c0,0,3.4-4.6,7.8-4.9"/>
		<path class="st4" d="M186.4,146.6c0,0,2-6.2,8.4-7.4"/>
		<path class="st4" d="M203.8,241.3l-7.6,14.6c0,0-25.2,42.7-16.7,70.3"/>
		<path class="st4" d="M226.1,290.3l24.8-42.6c0,0,32.5-47.2,35.9-53.9l11.5-21.2"/>
		<path class="st4" d="M193.7,214c0,0,44.2,32.2,57.3,33.8"/>
		<path class="st4" d="M216.7,134.7c0,0,0,20.2,5.4,28.5"/>
		<path class="st4" d="M314,174.5c-1.4,8.3-19.8,25.8-19.8,25.8"/>
		<circle class="st0" cx="176.4" cy="275.6" r="2.6"/>
		<polygon class="st11" points="422.5,331.9 421,321.9 429.6,327.6 425.1,328.6 		"/>
		<path class="st4" d="M138.7,160.7c-16.2-14.3-43,21.4,55,134.9c56.5,65.5,101,71.4,107,48.6c10.8-40.9-28.2-51.2-13.7-35.2
			c21.1,23.3,81.1,28.2,125.8,6.5c44.1-21.4,17-54.7,14.3-56.7"/>
		<circle class="st0" cx="413.6" cy="315.3" r="2.6"/>
		<line class="st4" x1="375.5" y1="336.7" x2="453.2" y2="292.9"/>
		<circle class="st0" cx="140.4" cy="162.8" r="2.6"/>
		<circle class="st12" cx="207.2" cy="108.7" r="5.6"/>
		<path class="st3" d="M105.1,65.8c-1.4,0-2.5,1.1-2.5,2.5s1.1,2.5,2.5,2.5s2.5-1.1,2.5-2.5S106.5,65.8,105.1,65.8L105.1,65.8z"/>
		<circle class="st13" cx="436.5" cy="370.5" r="2.5"/>
		<path class="st6" d="M392.3,258.8l-26.6-12.5c-2.1-1-2.1-4.1,0.1-5l49.5-21.8c0.7-0.3,1.5-0.3,2.2,0l34,14.6L392.3,258.8
			L392.3,258.8z"/>
		<path class="st14" d="M390.7,217.8c0.1,11,1.6,41,1.6,41l59.1-24.7l-1.3-41.8c-0.1-2.6-2.7-4.2-5.1-3.1l-50.9,23.2
			C392,213.4,390.7,215.5,390.7,217.8L390.7,217.8z"/>
		<path class="st4" d="M392.3,258.8l59.1-24.7l-1.3-41.8c0,0-0.4-4.6-5.1-3.1"/>
		<line class="st4" x1="421" y1="228.8" x2="424.9" y2="219.3"/>
		<line class="st4" x1="424.9" y1="228.8" x2="428.9" y2="219.3"/>
		<circle class="st12" cx="115.8" cy="329.2" r="2.5"/>
		<circle class="st12" cx="324.3" cy="341.5" r="3.4"/>
		<path class="st15" d="M141.4,365.9c4,1.9,15.7,6.8,31.2,6.7c0.9,0,1.5,0.7,1.4,1.6l-2.2,17.1c-0.1,0.6-0.5,1.1-1.1,1.2
			c-4.4,0.8-22,3.2-35.2-8c-0.4-0.4-0.6-0.9-0.4-1.4l4.4-16.3C139.7,366,140.6,365.5,141.4,365.9L141.4,365.9z"/>
		<path class="st4" d="M143,370.9c0,0,7.6,10.7,10.3,12.2c2.7,1.5,17.4-7.2,17.4-7.2"/>
		<line class="st4" x1="160.5" y1="381.7" x2="168.5" y2="389.9"/>
		<line class="st4" x1="149.4" y1="380.1" x2="140" y2="382.6"/>
		<rect x="377.7" y="163.3" class="st16" width="9" height="8.9"/>
		<polygon class="st3" points="378.9,284 381.6,288.6 384.2,293.2 378.9,293.2 373.6,293.2 376.3,288.6 		"/>
		<path class="st11" d="M163.9,79.9l0.7-20.9c-0.1-1.9,0.7-2.6,1.9-2.8c5.7-1.3,23-5.1,41.7,0.4c2.4,0.7,2.4,2,2.3,3.2l-0.7,19.9
			c0,1.5-1.6,2.5-3.3,2.3c-5.5-0.8-12.9-1.1-20.5-1c-7.8,0.1-14.8,0.6-19.7,1.6C164.5,82.9,163.8,81.6,163.9,79.9L163.9,79.9z"/>
		<path class="st11" d="M170.2,76.9l10.9-12.8L193.2,76C189.1,74.6,170.2,76.8,170.2,76.9L170.2,76.9z"/>
		<polyline class="st11" points="187.8,70 196.7,62.9 204.1,68.2 204.4,76.5 193.2,76 		"/>
		
			<ellipse transform="matrix(0.1005 -0.9949 0.9949 0.1005 92.8609 228.4973)" class="st11" cx="172.8" cy="62.9" rx="1.8" ry="2.2"/>
		<path class="st11" d="M375.3,351.6l7.3,13.5c0.8,1.2,0.5,1.9-0.2,2.5c-3.1,2.9-12.7,11.8-26.7,15.2c-1.8,0.5-2.2-0.4-2.6-1.1
			l-7-12.9c-0.5-1,0.1-2.2,1.2-2.7c3.8-1.5,8.6-4.1,13.4-7c5-3,9.2-5.9,11.9-8.3C373.7,349.9,374.7,350.5,375.3,351.6L375.3,351.6z"
			/>
		<path class="st11" d="M372.4,355.9l-2.2,12.2l-12.1-3.1C361.2,364.3,372.4,355.9,372.4,355.9L372.4,355.9z"/>
		<polyline class="st11" points="363.8,366.8 360.8,374.6 354,374 350.8,368.8 358.1,365 		"/>
		
			<ellipse transform="matrix(0.9095 -0.4156 0.4156 0.9095 -118.0276 189.3385)" class="st11" cx="375.9" cy="365.8" rx="1.6" ry="1.3"/>
		<path class="st17" d="M339.6,120.4l29.8,22.8c0.6,0.5,1.6,0.4,2.1-0.3l4.5-6.1c0.5-0.6,0.4-1.5-0.3-2l-29.4-23.5
			c-0.7-0.5-1.6-0.4-2.1,0.3l-4.9,6.8C338.8,119.1,338.9,120,339.6,120.4L339.6,120.4z"/>
		<polygon class="st12" points="341.8,119.4 349,124.5 353.3,119.4 346,113.4 		"/>
		<polygon class="st13" points="351.7,126.5 359,132.2 362.8,127.4 355.5,121.5 		"/>
		<polygon class="st3" points="361.4,134.4 368.6,139.5 372.1,135.1 365.2,129.3 		"/>
		<path class="st17" d="M399,88.6l6.8,57.1c0.2,1.2,1.3,2.1,2.5,2l11.5-1.6c1.2-0.2,2-1.2,1.9-2.4l-5.6-57.3c-0.1-1.3-1.3-2.2-2.6-2
			l-12.7,1.9C399.7,86.2,398.9,87.4,399,88.6L399,88.6z"/>
		<polygon class="st12" points="402.5,89.9 404.6,103.2 414.8,102.5 413.7,88.1 		"/>
		<polygon class="st18" points="405.4,108.3 406.8,122.4 416.2,121.6 414.9,107.2 		"/>
		<polygon class="st13" points="407,127.4 409.1,140.8 417.7,139.8 416.6,126.2 		"/>
		<path class="st17" d="M384.2,100.7L403,156c0.3,0.9,1.4,1.4,2.3,1.1l11.8-4.2c0.9-0.3,1.4-1.3,1.1-2.2l-17.7-55.8
			c-0.3-1-1.4-1.5-2.3-1.1l-12.9,4.8C384.4,98.8,383.9,99.8,384.2,100.7L384.2,100.7z"/>
		<polygon class="st3" points="388,101.7 392.9,114.3 402.7,111.5 398.6,97.6 		"/>
		<polygon class="st5" points="394.7,119.1 399,132.6 408,129.8 403.8,116.1 		"/>
		<polygon class="st13" points="400.2,137.5 405.1,150.1 413.2,147.4 409.4,134.3 		"/>
		<path class="st7" d="M147.6,170.5h94.9c3,0,5.5,2.5,5.5,5.5v12.9c0,3-2.5,5.5-5.5,5.5h-94.9c-3,0-5.5-2.5-5.5-5.5V176
			C142.1,173,144.5,170.5,147.6,170.5z"/>
		<path class="st2" d="M155.2,177.5h51.8c1,0,1.8,0.8,1.8,1.8l0,0c0,1-0.8,1.8-1.8,1.8h-51.8c-1,0-1.8-0.8-1.8-1.8l0,0
			C153.4,178.3,154.2,177.5,155.2,177.5z"/>
		<line class="st4" x1="153.9" y1="185.8" x2="241.9" y2="185.8"/>
		<path class="st18" d="M108.9,125.7l1.5,1.6c0.6,0.7,0.6,1.8-0.1,2.4l-2.5,2.2c-0.7,0.6-1.8,0.6-2.4-0.1l-1.5-1.6L108.9,125.7
			L108.9,125.7z"/>
		<path class="st4" d="M102.4,130.3l-7.1-7.7c-0.4-0.4-0.3-1,0.1-1.4l4.9-4.5c0.4-0.4,1-0.3,1.4,0.1l7.1,7.7c0.4,0.4,0.3,1-0.1,1.4
			l-4.9,4.5C103.4,130.7,102.8,130.7,102.4,130.3z"/>
		<rect x="79.1" y="157.6" class="st12" width="8.9" height="8.1"/>
		<polyline class="st4" points="79.1,152.4 79.1,157.6 73.8,157.6 		"/>
		<rect x="371.4" y="66.2" class="st13" width="8.9" height="8.1"/>
		<polyline class="st4" points="371.4,61 371.4,66.2 366.1,66.2 		"/>
		<path class="st4" d="M131.3,116.2c-92-38.1-162.8,35.3,10.6,147.7c13.6,8.9,34.6,12,34.6,12"/>
		<circle class="st0" cx="46.7" cy="118.8" r="2.6"/>
		<polygon class="st11" points="30,104.4 32.9,101.7 39.5,105.4 42.8,115.7 32.7,111.4 		"/>
		<polygon class="st11" points="32.9,101.7 30,104.4 28.4,102.5 31.2,99.8 		"/>
		<line class="st11" x1="42.8" y1="115.7" x2="36.2" y2="108.4"/>
		<path class="st17" d="M58.8,299.2l7.1,36.8c0.2,0.8,0.9,1.3,1.8,1.2l7.4-1.6c0.8-0.2,1.3-0.9,1.1-1.7l-6.4-37.1
			c-0.1-0.8-0.9-1.4-1.8-1.2l-8.2,1.8C59.1,297.7,58.6,298.5,58.8,299.2L58.8,299.2z"/>
		<polygon class="st12" points="61.1,299.9 63.1,308.5 69.7,307.6 68.3,298.2 		"/>
		<polygon class="st13" points="63.8,311.8 65.4,320.9 71.5,319.9 70,310.7 		"/>
		<polygon class="st3" points="65.8,324.2 67.8,332.8 73.3,331.8 72,322.9 		"/>
		<polygon class="st11" points="280.4,389.9 260.9,414.3 258,412.4 277.9,387.8 		"/>
		<line class="st11" x1="286.3" y1="390.8" x2="283.9" y2="389.1"/>
		<line class="st11" x1="285.9" y1="388.8" x2="284.4" y2="391"/>
		<line class="st11" x1="281.2" y1="381.5" x2="276.8" y2="378.3"/>
		<line class="st11" x1="280.4" y1="378" x2="277.6" y2="381.9"/>
		<line class="st11" x1="291.9" y1="384.2" x2="286.1" y2="380"/>
		<line class="st11" x1="291" y1="379.5" x2="287.1" y2="384.9"/>
		<polygon class="st19" points="43.2,63.4 24,54.8 24.8,52.6 44.1,61.4 		"/>
		<line class="st19" x1="43.5" y1="67.4" x2="44.3" y2="65.6"/>
		<line class="st19" x1="44.8" y1="66.8" x2="43.1" y2="66.2"/>
		<line class="st19" x1="48.8" y1="62.6" x2="50.1" y2="59.2"/>
		<line class="st19" x1="50.9" y1="61.5" x2="47.9" y2="60.3"/>
		<line class="st19" x1="48.7" y1="69.9" x2="50.5" y2="65.4"/>
		<line class="st19" x1="51.6" y1="68.6" x2="47.5" y2="67"/>
		<path class="st13" d="M114.6,224.8c-13.5-9.7-26.7-24.8-20.9-40.3c0,0,9.3-6.2,24,1.6l14.7,7.7L114.6,224.8L114.6,224.8z"/>
		<g>
			<path class="st2" d="M108.5,289.5c-6.1-2.9-31.9-16.3-36.6-39.4c-4-19.9,11.2-46.7,18.9-58.6c-0.5,15.7,15.3,29,22.9,34.5
				c7.7,5.6,13.4,8.3,21.2,11.2L108.5,289.5z"/>
			<path class="st13" d="M89.6,196.2c1.6,10.5,9.6,21.3,23.2,31.1c7.3,5.3,12.9,8,20,10.8l-25,49.4c-7.6-3.8-30.2-16.7-34.4-37.7
				C69.9,232.3,81.8,209.2,89.6,196.2 M93.7,184.6c0,0-28.6,38.7-23.2,65.8s38.7,41,38.7,41l27.9-55c-8.7-3.2-14.4-5.8-22.4-11.6
				C101.1,215.1,87.9,200.1,93.7,184.6L93.7,184.6L93.7,184.6z"/>
		</g>
		<path class="st4" d="M86.2,207.1c0,0,1.7,15.5,17.2,23.9"/>
		<line class="st4" x1="111.7" y1="236.5" x2="127.3" y2="244.8"/>
		<path class="st4" d="M88.4,229.3c0,0,5,11.1,21.1,18.3"/>
		<path class="st4" d="M75.6,231c0,0,0.6,11.7,8.3,15.5"/>
		<path class="st4" d="M93.4,190.4c0,0-1.4,15,21.2,34.4"/>
		<path class="st4" d="M101.7,193.2c0,0,7.2-0.6,17.8,7.2"/>
		<path class="st4" d="M67.8,241c-0.5,7.4,0.5,34.4,39.5,51.5"/>
		<path class="st18" d="M316.8,226l-16.5,33.1c0,0,11.2,4.1,2.5,17c0,0,20.7,8.6,34.3-13.7S316.8,226,316.8,226L316.8,226z"/>
		<g>
			<path class="st2" d="M278.9,327.3c-8.4,0-17.2-3.4-26.3-10.2l31-51.3l18.4,11.6l0.1,0c0.2,0.1,4.3,1.7,10,1.7
				c4.6,0,10.5-1.1,16.2-5.1l-22.6,38.7C305.8,313,296,327.4,278.9,327.3L278.9,327.3z"/>
			<path class="st20" d="M284.1,268l17,10.7l0.2,0.1l0.2,0.1c0.2,0.1,4.5,1.9,10.6,1.9c3.5,0,7.8-0.6,12.1-2.5L304.5,312
				c-0.7,1-9.9,13.8-25.6,13.8c-7.7,0-15.9-3-24.3-9.1L284.1,268 M337,262.4c-7.7,12.6-17.6,15.4-24.8,15.4c-5.5,0-9.5-1.6-9.5-1.6
				l-19.6-12.3l-32.4,53.7c10.9,8.4,20.3,11.3,28.3,11.3c18.1,0,28.1-15.2,28.1-15.2L337,262.4L337,262.4L337,262.4z"/>
		</g>
		<path class="st4" d="M300.2,259.2c0,0,12.3,4.4,2.5,17"/>
		<path class="st4" d="M282.7,262.7c0,0,16.8,15.4,26.1,15.3s20.2-2.3,26.6-13.4"/>
		<path class="st4" d="M284.8,282.6c0,0,11.5,10.2,24.4,7"/>
		<path class="st4" d="M296.9,297.9c0,0,6,4.5,14.5,0.2"/>
		<path class="st4" d="M269.1,304.2c0,0,14,13.9,36,4.7"/>
		<path class="st4" d="M276.7,290.7c0,0,5.7,4.1,9.3,5.4"/>
		<path class="st4" d="M319.6,235.7c0,0,12.8,4.2,14.3,21"/>
		<path class="st4" d="M326,256.4c0,0,5.9,9.1-4,18.2"/>
		<path class="st4" d="M251.9,320.1c0,0,32,27.4,55.2-4.6"/>
		<line class="st21" x1="20.8" y1="215.7" x2="28.2" y2="215.7"/>
		<line class="st21" x1="436.5" y1="125.9" x2="444" y2="125.9"/>
		<line class="st22" x1="236.4" y1="74.7" x2="243.8" y2="74.7"/>
		<line class="st22" x1="450.8" y1="164.6" x2="458.1" y2="165.9"/>
		<line class="st23" x1="157.6" y1="350.8" x2="165.1" y2="350.8"/>
		<circle class="st18" cx="466.8" cy="257.8" r="2.5"/>
		<circle class="st18" cx="2.5" cy="139.2" r="2.5"/>
		<circle class="st0" cx="495.6" cy="417" r="2.6"/>
		<path class="st4" d="M645.6,327.6c0,0,20.6-61.3-71.5-25.1C478.4,340,440.2,418.9,455.9,425.1s39-7.8,39-7.8"/>
	</g>
</g>
</svg>
