<?xml version="1.0" encoding="UTF-8"?>
<svg id="Capa_1" xmlns="http://www.w3.org/2000/svg" version="1.1" viewBox="0 0 1024 865.57">
  <!-- Generator: Adobe Illustrator 29.6.1, SVG Export Plug-In . SVG Version: 2.1.1 Build 9)  -->
  <defs>
    <style>
      .st0 {
        fill: #568ba7;
      }

      .st1 {
        fill: #74b4f5;
      }

      .st2 {
        fill: #cd8166;
      }

      .st3 {
        fill: #ebc112;
      }

      .st4 {
        fill: #74b5f7;
      }

      .st5 {
        fill: #537290;
      }

      .st6 {
        fill: #ecb6a6;
      }

      .st7 {
        fill: #62b9e6;
      }

      .st8 {
        fill: #c2700e;
      }

      .st9 {
        fill: #f8d155;
      }

      .st10 {
        fill: #eec71a;
      }

      .st11 {
        fill: #dea63b;
      }

      .st12 {
        fill: #ecc216;
      }

      .st13 {
        fill: #97e4ff;
      }

      .st14 {
        fill: #77c5fb;
      }

      .st15 {
        fill: #72b3f1;
      }

      .st16 {
        fill: #d3896f;
      }

      .st17 {
        fill: #4b5b79;
      }

      .st18 {
        fill: #73b3f3;
      }

      .st19 {
        fill: #f7d2c1;
      }

      .st20 {
        fill: #ffd731;
      }

      .st21 {
        fill: #71b3f1;
      }

      .st22 {
        fill: #6199b1;
      }

      .st23 {
        fill: #69c0f5;
      }

      .st24 {
        fill: #f5b943;
      }

      .st25 {
        fill: #88c3ff;
      }

      .st26 {
        fill: #59c5e2;
      }

      .st27 {
        fill: #fad45a;
      }

      .st28 {
        fill: #efad08;
      }

      .st29 {
        fill: #9cd5db;
      }

      .st30 {
        fill: #a85d05;
      }

      .st31 {
        fill: #e4b0a2;
      }

      .st32 {
        fill: #f9db62;
      }

      .st33 {
        fill: #58afc1;
      }

      .st34 {
        fill: #6eb5f1;
      }

      .st35 {
        fill: #73b7f9;
      }

      .st36 {
        fill: #a95d06;
      }

      .st37 {
        fill: #78b2ff;
      }

      .st38 {
        fill: #4d5e7c;
      }

      .st39 {
        fill: #ffb176;
      }

      .st40 {
        fill: #1a314a;
      }

      .st41 {
        fill: #132941;
      }

      .st42 {
        fill: #76b7f9;
      }

      .st43 {
        fill: #4b7c9b;
      }

      .st44 {
        fill: #f7d860;
      }

      .st45 {
        fill: #112b44;
      }

      .st46 {
        fill: #6fb5ff;
      }

      .st47 {
        fill: #fffaeb;
      }

      .st48 {
        fill: #ebc214;
      }

      .st49 {
        fill: #84bcff;
      }

      .st50 {
        fill: #5a96b0;
      }

      .st51 {
        fill: #eec126;
      }

      .st52 {
        fill: #50a5f8;
      }

      .st53 {
        fill: #c27010;
      }

      .st54 {
        fill: #79c4fd;
      }

      .st55 {
        fill: #72b4f3;
      }

      .st56 {
        fill: #f9e1c5;
      }

      .st57 {
        fill: #b1e8ff;
      }

      .st58 {
        fill: #e8a395;
      }

      .st59 {
        fill: #ffbba3;
      }

      .st60 {
        fill: #db9a45;
      }

      .st61 {
        fill: #7fc7f3;
      }
    </style>
  </defs>
  <path class="st19" d="M774.21,184.73c7.5-1.25,21.44-.47,29.56-.27,35.43.87,71.05,3.36,106.46,4.88,13.35.57,43.03-2.43,52.82,6.69,3.47,3.24,6.19,9.68,5.82,14.44-15.95,68.52-23.88,141.32-41.14,209.31-5.75,22.65-18.18,23.95-39.52,22.84-48.82-2.53-99.62-13.22-148.66-16.42-15.48-2.71-26.09-9.42-23.36-26.97,14.2-60.05,23.73-121.43,38.41-181.34,2.94-12.02,5.03-30.72,19.62-33.16ZM789.52,234.59c-3.31.99-4.67,6.94-2.12,9.44s51.82,3.38,59.52,3.82c24.62,1.41,49.3,3.12,73.91,4.87,7.44,1.87,10.36-10.34,3.82-11.57-28.47-1.5-56.99-2.44-85.38-3.88-13.05-.66-26.27-2.43-39.32-2.91-2.62-.1-8.26-.42-10.41.23ZM780.9,269.15c-5.28,2.54-4.91,9.57.78,11.28,30.38.68,60.78,4.87,91.11,5.82,4.43.14,15.84,1.65,16.82-3.44,2.12-10.98-10.2-7.67-16.82-8.08-16.89-1.05-33.91-1.94-50.87-2.88-13.65-.75-27.33-2.57-41.03-2.71ZM772.26,303.65c-4.86,2.91-5.04,9.61.79,11.33l81.53,5.84c5.52,1.03,10.17-3.11,7.68-8.68-2.05-4.58-11.03-2.58-15.32-2.91-24.88-1.89-49.75-4.3-74.67-5.58ZM765.55,338.23c-5.68,2.95-4.84,10.27,1.77,11.26l54.6,4.81c5.59-.32,7.35-8.37,2.74-11.29l-59.11-4.79Z"/>
  <path class="st20" d="M198.59,753.52c1.95,9.5,3.37,20.78,8.64,28.79-9.22-1.91-55.78-2.13-63.07,1.71s7.15,7.12,10.05,7.64c22.25,4.01,50.59,4.92,73.67,6.95,25.08,2.21,50.33,3.44,75.33,5.77,6.99.65,13.33,2.38,20.16,2.88,4.58,1.62,11.23,1.16,16.32.96,7.51.21,15.08-.27,22.59-.04,72.84,2.25,145.76,1.61,218.84,2.97,15.97.3,26.02,7.59,41.18,8.63,41.02,2.8,87.27-3.7,128.61-3.92l84.98-.92c8.03,2.12,39.43,6.8,45.11,1.92-.54,2.9,1.47,1.86,3.32,1.92,20,.66,38.27-2.23,49.89-20.21,4.74-7.34,5.78-13.33,5.34-22.01,1.16,7.71,10.01,9.58,12.03,17.24,3.4,12.91-4.75,22.23-15.21,28.03-37.94,21.04-144.04,22.97-189.73,23.81h-429.02c-32.4-.44-65.09-1.27-97.46-2.84-31.88-1.55-114.94-4.74-138.14-25.97-18.99-17.38-2.9-37.41,14.83-46.53,30.02-15.44,68.76-14.85,101.76-16.77Z"/>
  <path class="st22" d="M538.35,734.33c-2.04,2.77-5.62,11.75-6.72,15.35-10.32,1.69-20.8.61-31.23.92-85.94,2.54-172.12,6.65-258.1,8.72-13.44.32-21.87,2.64-26.15-12.31l-40.49-210.96c-1.8-3.45,3.93-12.82,7.1-12.82h22.55c.21-1.69-2.17-.91-3.35-.96-4.28-.18-8.69-.06-12.97,0l22.52-1.96c87.34-2.11,174.7-7.97,262.02-10.56,12.15-.36,20.47,1.55,24.23,14.24l40.59,210.34ZM446.02,535.02c-64.03,1.61-128.13,5.51-192.2,8.39-13.32.6-28.18-.23-41.34.89-12.73,1.08-11.51,4.92-9.76,15.59,8.98,54.89,22.54,109.21,31.65,164.1.57,3.84,4.15,7.76,7.95,8.36,9.19,1.46,19.62-.65,28.75-.9,72.77-1.96,146.09-2.57,218.78-6.77,8.67-.5,20.77,3.04,20.6-9.89l-33.46-173.88c-.79-2.77-2.57-5.32-5.54-5.98-5.98-1.33-18.71-.09-25.43.08Z"/>
  <path class="st29" d="M366.55,220.01c2.52,26.02,5.63,52.14,7.67,78.21.7,8.94,3.09,26.52,1.86,34.48-1.87,12.1-16.07,12.18-25.38,13.01-48.22,4.3-100.31,7.78-148.72,9.64-15.5.6-25.6,2.56-28.23-15.99-4.64-32.77-5.34-70.55-7.8-103.99l-.96-2.88c-.02-.32.02-.64,0-.96l201.55-11.51ZM261.74,246.2c-9.99.28-24.11.55-33.76,1.75s-9.49,7.78-1.13,8.58l48.05-2.94c3.14-.51,4.73-5.6,1.43-7.2-2.78-1.34-11.06-.3-14.59-.2ZM199.2,249.89c-2.7.9-3.54,10.45,4.58,9.43s5.23-12.69-4.58-9.43ZM236.79,270.19c-2.14.1-10.2.61-11.32,1.16-2.79,1.36-3.47,6.65,1.4,7.25,2.34.29,19.47-.74,20.69-1.47,2.15-1.3,2.12-5.46,0-6.74s-8.1-.31-10.76-.19ZM208.92,280.23c6.92-6.86-10.05-13.87-9.46-3.13.28,5.07,6.91,5.66,9.46,3.13ZM264.1,290.29c-1.65,1.63-1.52,4.92.73,6,2.01.97,8.43.61,11.07.52,11.74-.42,23.74-2.13,35.48-2.91,5.96-.39,26.11,1.25,13.65-8.41-18.82,2.19-38.05,1.6-56.87,3.6-1.25.13-3.17.32-4.06,1.19ZM243.5,290.34c-3.71.16-13.52.24-16.17,1.11-4.5,1.47-3.75,7.47.65,7.92,5.96-2.34,32.26,2.63,24.36-8.84-2.06-1.24-6.41-.29-8.84-.19ZM204,291.15c-.48.16-.85.34-1.15.77-1.35,1.93.62,27.98,1.99,30.76,1.21,2.46,4.75,2.6,6.32.57,1.72-4.04.28-30.3-1.97-31.78-1.11-.73-3.93-.74-5.19-.32ZM290.49,311.41c-.69-.7-2.07-1.03-3.06-1.04l-57.61,3.7c-4.72.87-4.77,7.81.09,8.33,9.85-.82,19.78-1.9,29.64-2.59,7.93-.55,19.39.21,26.81-1.03,3.82-.63,7.31-4.17,4.13-7.38Z"/>
  <path class="st60" d="M917.46,748.72c-1.66,25.21-19.06,35.65-43.19,32.62-1.38-1.02-8.57-4.39-10.59-5.24-12.09-5.1-25-6.57-37.4-1.47-4.13-1.58-4.16-7.17-6.53-11.22-.99-1.69-4.78-5.24-4.99-6.05-.99-3.79.58-12.1,1.65-16.1,4.34-16.29,17.2-26.38,31.6-33.66l14.73-5.88c-12.65-5.19-27.03,3.81-36.48,11.97-10.56,9.12-17.64,20.68-18.22,35.03-1.79,1.43-3.99-.9-5.25-1.95-15.17-12.63-14.75-30.05-22.1-46.98-8.87-20.42-43.22-57.84-67.17-40.29-4.41,3.23-9.76,12.71-7.21,18.22-.28,10.33,4.14,23.86,4.79,35.03,1.12,19.31-1.44,34.98,4.81,54.2-18.38,1.64-38.01,11.55-42.72,30.7-.99,4.05-1.75,9.4-.47,13.44-2.45,1.24-4.5,1.1-4.8-1.92-.8-8.16,1.52-18.17,6.3-24.89,6.13-8.62,12.75-6.54,7.01-20.56-4.72-11.54-16.45-16.02-23.89-25.05-8.26-10.02-8.78-18.91-7.64-31.67,2.65-29.68,33.93-48.57,29.74-80.14,14.97,1.27,24.83,2.77,38.1,10.37,2.37,1.36,6.37,5.62,8.5,5.96,3.48.56,12.82-2.41,17.24-2.88,31.14-3.33,71.99-4.11,101.48,6.94,40.54,15.19,75.67,56.33,72.71,101.47ZM661.68,705.56c-4.21.02-1.25,8.39-.05,10.59,5.25,9.63,17.86,10.01,25.96,3.79,3.67-2.82,9.16-12.33,1.96-11.55-2.96.32-5.73,8.63-12.59,9.59-11.07,1.54-12.76-12.43-15.28-12.41Z"/>
  <path class="st43" d="M189,522.27c4.28-.06,8.68-.18,12.97,0,1.18.05,3.56-.73,3.35.96h-22.55c-3.17,0-8.91,9.37-7.1,12.82l40.49,210.96c4.28,14.96,12.71,12.64,26.15,12.31,85.98-2.06,172.16-6.18,258.1-8.72,10.43-.31,20.91.77,31.23-.92-1.63,5.34-2.6,10.7-2.88,16.31-8.79.21-17.64-.27-26.43-.04-53.39,1.41-110.51,1.33-163.6,4.84l-102.69-9.59c-.23,1.35,1.7,1.4,2.66,1.63,6.71,1.63,13.61,3.08,20.36,4.6,20.01,4.52,49.46,12.44,69.11,13.9,1.16,1.45,2.47-.11,2.46,1.99-.04,7.61.85,15.32.41,22.97l5.76.94c-4.43-.22-9.01.33-13.43,0-6.83-.5-13.16-2.23-20.16-2.88-1.13-1.42-2.86-1.43-4.45-1.79-30.24-6.88-61.37-14.05-91.53-20.28-5.26-8-6.69-19.28-8.64-28.79-14.3-69.66-25.8-140.01-40.35-209.64.84-20.65,13.99-21.38,30.76-21.61Z"/>
  <path class="st58" d="M265.61,381.45c7.56-.9,14.38,5.57,15.44,12.8,2.61,17.69,2.18,39.36,2.97,57.48.31,7.07,3.01,21.51.65,27.55-2.75,7.05-8.62,8.69-15.56,9.39-19.89,2.01-44.23,3.33-64.25,3.89-12.91.36-24.18,1.97-26.44-13.95-3.32-23.35-1.42-49.33-4.83-72.89-1.27-9.33,1.87-18.24,12.12-19.63,25.54-3.45,54.05-1.1,79.89-4.64ZM227.14,403.48c-13.72,2.67-9.05,19.91,4.36,16.87,11.72-2.65,7.44-19.17-4.36-16.87ZM254.01,417.91c-11.43,1.85-17.53,8.3-30.82,7.32-4.91-.36-29.37-8.56-26.38,2.31,1.79,6.49,20.33,5.54,21.81,10.97s-10.72,27.7-5.24,32.03c9.15,7.23,11.99-13.57,14.56-17.29,5.55-8.02,11.21,12.92,15.22,15.34,4.72,2.85,10.15-.46,9.01-6.06-1.25-6.13-12.41-21.13-9.89-26.6s20.83-6.59,19.7-14.83c-.55-4.04-4.82-3.7-7.96-3.19Z"/>
  <path class="st58" d="M366.55,220.01l-201.55,11.51c-.73-10-2.88-25.74-1.97-35.07.54-5.53,4.59-11.63,10.35-12.68,8.39-1.52,22.36-1.58,31.45-2.14,40.58-2.48,81.34-4.07,121.92-5.73,12.52-.51,31.62-6.85,36.64,9.35,2.79,9.01,2.19,24.83,3.15,34.75Z"/>
  <path class="st61" d="M574.56,368c1.6-.32,2.95-.3,4.56-.23,21.97.94,45.79,6.39,67.94,7.92,6.94,2.37,12.15,9.09,12.23,16.56.15,13.78-5.29,42.74-7.84,57.41-1.99,11.46-4.33,22.31-18.59,21.79-16.6-.6-41.56-4.28-58.38-6.9-11.97-1.87-20.93-4.91-20.8-19.49.17-19.44,7.61-44.24,8.78-64.22,1.38-5.46,6.4-11.69,12.1-12.84ZM625.42,400.58c-5.14,1.55-21.89,26.63-25.33,27.54-1.4.37-1.75.07-2.7-.85-3.39-3.23-5.4-17.38-12.42-16.34-2.4.35-5.15,3.45-4.21,6.01,5.5,5.24,11.19,30.65,21.44,21.86,3.65-6.21,29.16-29.02,29.18-34.08.02-3.39-2.77-5.11-5.96-4.15Z"/>
  <path class="st20" d="M463.23,258.61c3.45-.63,8.62-.37,12.24-.21,17.31.72,41.14,3.4,58.44,5.87s17.62,8.71,16.96,24.39-2.73,36.84-4.85,52.73c-1.8,13.51-4.9,19.18-19.71,18.76-17.67-.5-42.66-3.34-60.41-5.81-12.14-1.69-20.16-4.69-19.74-18.73.52-17.53,3-44.98,5.94-62.21,1.21-7.07,2.98-13.3,11.13-14.78ZM468.93,280.62c-2.59.87-3.21,6.25-2.09,8.49,1.66,3.3,9.36.86,10.14,5.29l-3.76,34.32c.9,3.35,12.8,5.94,13.29.18l3.04-34.38c1.02-3.22,5.03-.53,7.11-.56,5.38-.07,7.41-7.91,2.89-10.68-2.89-1.78-27.26-3.79-30.62-2.66ZM514.11,285.49c-11.42,1.94-13.65,16.48-6.46,24.23,2.68,2.89,14.32,8.36,13.33,12.29-1.84,7.33-16.15-4.99-18.66,2.54-3.61,10.84,13.02,11.5,20.11,10.52,10.43-1.44,15.49-14.04,9.21-22.47-2.64-3.55-16.46-10.19-15.36-14.35,1.58-5.96,19.9,7.14,17.26-6.71-1.18-6.15-14.43-6.89-19.43-6.04Z"/>
  <path class="st20" d="M508.37,60.97c49.51-6.71,80.61,49.53,49.15,87.52-33.72,40.71-97.61,11.79-93.05-40.26,1.97-22.51,21.26-44.19,43.9-47.26ZM495.16,93.35c-2.57-.05-15.21-.76-15.33,1.43l35.99,57.17c3.3.31,5.51-4.78,7.2-7.24,10.52-15.42,19.61-33.23,29.56-49.14l.17-2.21c-5.1.07-10.25-.11-15.35,0-3.17.07-8.94-.66-11.5.5-2.99,1.34-6.6,12-10.08,11.99-.75,0-5.97-10.56-9.15-11.98-2.58-1.16-8.32-.44-11.5-.5Z"/>
  <path class="st34" d="M635.08,146.39c49.49-5.61,83.38,46.45,58.92,89.62-25.43,44.88-92.17,36.09-107.69-12.61-10.9-34.2,12.88-72.94,48.77-77.01ZM607.87,208.86c-13.96,17.65-1.27,31.88,18.83,25.94,6.3,19.75,24.02,20.26,31.62.97,20.98,5.25,32.92-12.56,16.34-27.76,11.94-10.83,11.38-27.76-7.38-28.9-2.47-.15-5.65,1.43-8.35.47-1.33-.47-4.55-9.31-8.33-11.82-10.77-7.15-20.91,2.61-24,12.89-21.21-6.02-31.66,9.79-17.32,26.52.6,1.77-.95,1.09-1.41,1.68Z"/>
  <path class="st46" d="M381.91,150.92c-66.79,35.64-127.51-68.05-60.39-105.95,55.05-31.08,116.89,39.05,77.65,92.06-.86,1.16-2.55,1.49-.95,3.34l-2.84-.52-13.48,11.08ZM343.29,55.21c-12.71,1.73-26.47,12.77-30.95,24.71-16.62,44.28,44.97,83.41,74.35,46.5,25.37-31.86-5.02-76.44-43.4-71.22Z"/>
  <path class="st20" d="M730.5,120.4c.89-1.51,8.08-2.95,8.43-9.37.39-7.14-8.42-8.68-8.67-9.68-1.1-4.45,5.92-18.16,10.34-19.37,3.87-1.05,8.03,4.46,14.21-.12,5.07-3.75.6-10.28,8.07-12.08,3.27-.79,14.2-.24,16.79,1.57,2.96,2.06-.78,9.32,7.44,11.79,4.92,1.48,8.89-2.36,12.27-.84,2.75,1.24,9.15,13.55,9.48,16.58.5,4.68-7.45,3.44-8.31,10.56-.98,8.09,7.61,9.54,8.33,12.4s-7.09,17.57-10.16,18.39c-3.4.91-8.15-3.59-13.68-1.27s-2.81,8.51-4.32,11.03c-2.27,3.81-17.08,3.16-20.65,1.41-3.86-1.88.83-10.2-6.67-12.52-7.94-2.46-11.29,5.29-17.17-2.99-1.67-2.35-7.13-13.1-5.73-15.49ZM768.48,98.32c-18.87,2.12-9.45,33.46,7.65,22.12,10.7-7.09,3.9-23.42-7.65-22.12Z"/>
  <path class="st8" d="M631.45,636.45l-14.8,18.31c-12.89,19.18-18.91,41.97-21.55,64.81-.39,3.41-2.35,11.3.84,12.83-4.58,2.77-10.49,6.5-13.93,10.55-3.13,3.68-5.66,11.44-7.69,13.42-1.6,1.56-8.67,3.91-11.89,6.34-10.86,8.24-16.69,21.41-16.4,34.94-1.26-1.49-5.33-3.18-7.17-4.82-5.19-4.62-9.32-11.18-10.1-18.21-.28-2.47-.13-6.07,0-8.64.28-5.61,1.25-10.97,2.88-16.31,1.1-3.6,4.68-12.58,6.72-15.35,7.76-10.56,25.51-23.92,35.05-34.53,22.03-24.51,27.25-44.4,58.05-63.34Z"/>
  <path class="st60" d="M663.12,625.9c-16.43,14.44-24.88,36.12-28.53,57.36-1.67,9.71-.6,20.58-6.18,29.33-5.32,8.33-23.66,14.5-32.48,19.83-3.19-1.53-1.23-9.42-.84-12.83,2.64-22.84,8.67-45.63,21.55-64.81l14.8-18.31c11.64-7.16,17.45-9.76,31.67-10.56ZM602.19,701.71c-5.3,8.15,4.01,15.84,12.24,14.17,7.09-1.44,11.77-14.11,6.94-14.16-2.16-.02-3.57,9.15-11.48,7.65-4.42-.84-5.18-8.21-7.7-7.66Z"/>
  <path class="st53" d="M939.54,776.55c.44,8.68-.6,14.67-5.34,22.01-11.62,17.98-29.89,20.87-49.89,20.21-1.85-.06-3.85.98-3.32-1.92,4.9-4.21,4.94-21.4,1.39-26.82-.59-.9-7.34-8.11-8.11-8.68,24.13,3.02,41.53-7.41,43.19-32.62,13.38,4.47,21.35,13.56,22.07,27.83Z"/>
  <path class="st7" d="M398.23,140.36c7.61,8.8,16.71,16.33,24.49,24.93,3.1,3.43,10.32,10.84,10.96,14.95,1.9,12.23-9.89,18.3-19.15,10.52l-32.61-39.84,13.48-11.08,2.84.52Z"/>
  <path class="st58" d="M224.75,54.25l-26.63,49.65c6.44,12.79-8.96,18.31-12.63,5.71l-49.78-5.82c-1.63.09-5.55,7.73-12.06,2.58-9.01-7.12,6.61-19.46,12.28-6.3l50.72,5.32,7.1-2.98,26.52-49.37c.73-2.91-3.37-4.86-.45-9.97,6.23-10.9,22.69,7.27,4.93,11.17Z"/>
  <path class="st31" d="M654.48,64.56c1.95,17.04,9.62,23.26,25.45,26.89,1.49.34,1.67-.63,1.44,1.9-12.99.42-22.24,9.4-26.22,21.29-.86,2.58.47,7.27-2.57,6.55-.14-8.64-4.37-18.54-11.82-23.22-4.61-2.9-8.78-3.15-13.66-4.59-1.4-.41-1.68.55-1.41-1.94,17.27-1.19,23.34-9.9,26.89-25.44.34-1.49-.64-1.67,1.9-1.44Z"/>
  <path class="st58" d="M765.06,534.94c-1.99,6.59-11.13,6.24-11.79-.67-.76-7.93,7.88-9.51,12.19-3.6l53.48-3.77c1.62-.55,3.25-5.13,5.47-6.1,2.48-1.09,3.64.49,5.32.43s20.79-19.53,23.47-22.45c1.33-1.45,8.87-9.49,9.13-10.12.91-2.26-2.38-5.63,2.39-9.06,5.81-4.19,12.48,2.31,8.67,8.66-1.85,3.08-4.63,1.78-7.04,2.56-2.23.72-30.8,31.05-32.42,33.8s-.32,6.74-4.02,8.45c-6.02,2.79-7.03-2.39-12.73-2.24-17.27.45-34.79,3.75-52.11,4.12Z"/>
  <path class="st16" d="M918.68,127.64c1.39.88,3.7.13,6.01,2.15,7.04,6.16-3.9,17.06-9.56,8.61-3.24-4.83.68-4.83.3-7.87-.21-1.62-14.52-27.44-15.71-28.54-2.67-2.47-11.63-1.64-8.71-10.6,2.39-7.33,11.33-1.73,12.97-2.3,1.14-.39,3.5-2.72,5.17-3.57,4.82-2.47,26.51-12.68,28.8-15.11,1.56-1.66.18-5.39,4.11-7.64,11.76-6.73,14.98,19.55-1.86,10.59-7.52,6.62-31.21,14.13-35.91,21.68-.54.86-1.93,4.16-1.67,5.04,4.68,3.94,12.62,25.39,16.07,27.57Z"/>
  <path class="st12" d="M667.93,325.56c.47,2.95-.81,1.5-2.36,1.92-12.77,3.5-20.21,10.25-21.65,23.97l-4.26-12.52c-3.83-6.94-12.01-11.04-19.73-11.47-.23-2.56-.04-1.56,1.44-1.89,13.7-3.11,20.57-9.39,21.6-24.01,2.94,2.85,2.92,7.93,4.96,11.82,3.77,7.19,11.83,12.25,19.99,12.17Z"/>
  <path class="st3" d="M384.78,438.79l-11.23,4.59c-7.29,4.57-10.35,12.37-12.28,20.36-1.07-13.28-10.36-22.84-23.52-24.48,14.18-1.51,21.24-11.09,23.52-24.48,1.59,11.87,10.53,23.86,23.51,24.01Z"/>
  <path class="st14" d="M417.42,360.1c.65,8.72,5.21,17.25,13.74,20.33l8.33,2.69c-14.1,1.39-19.17,8.66-22.09,21.6-.34,1.5.64,1.67-1.9,1.44-.28-8.44-3.89-16.57-11.83-20.32l-9.28-3.66c10.8-1.2,16.89-6.45,20.45-16.5.83-2.34-.41-6.32,2.57-5.59Z"/>
  <path class="st9" d="M135.51,432.76c1.76,1.1,5.03.15,7.46,2.62,10,10.23-15.71,20.5-11.07-.4l-30.46-39.16c-20.14-1.91-3.11-22.93,4.1-10.35,2.69,4.69-1.61,6.19-.59,8.19l30.57,39.09Z"/>
  <path class="st20" d="M490.37,431.12c1.7,1.56-.31,1.64-1.44,1.89-11.4,2.56-16.84,7.32-18.72,19.21l-8.16-14.38c-4.01-2.94-8.79-5.39-13.91-4.81-.48-2.94.8-1.5,2.35-1.92,11.37-3.07,16.34-8.46,18.78-20.13l4.6,10.25c1.1,6.69,15.3,8.79,16.5,9.9Z"/>
  <path class="st54" d="M700.55,462.77c.56,8.6,5.75,16.07,13.71,19.41,2.47,1.04,6.19-.33,5.5,2.66-12.04.6-16.14,8.52-19.18,18.74-.41,1.38.59,1.7-1.93,1.41.8-6.52-4-13.63-9.28-17.11-3.72-2.45-7.86-2.25-10.88-4.95,12.85.26,17.64-7.45,20.17-18.72.34-1.49-.65-1.67,1.9-1.44Z"/>
  <path class="st23" d="M567.14,542.41c-.45,6.06,3.64,13.53,8.69,16.75,2.69,1.72,5.89,1.85,8.33,3.17,1.13.61,1.61-.03,1.22,2.14-11.53.23-15.96,7.58-18.26,17.76-.34,1.49.65,1.67-1.9,1.44-.4-7.84-4.97-14.9-12.09-18.14-2.52-1.15-5.96-.47-7.1-2.96,12.56-1.87,15.85-7.56,19.18-18.75.41-1.38-.59-1.69,1.93-1.41Z"/>
  <path class="st20" d="M880.03,574.07c-11.26.17-18.23,9.93-19.68,20.17-1.17-10.27-8.56-19.96-19.68-20.17,2.23-2.9,6.64-2.85,9.92-4.94,5.91-3.77,8.44-10.58,9.75-17.13,1.43,6.36,3.94,13.44,9.75,17.13,3.29,2.09,7.69,2.05,9.92,4.94Z"/>
  <path class="st20" d="M849.32,36.73c.47,10.74,8.31,19.17,19.2,19.67-2.17,1.97-5.16,1.5-7.91,2.65-3.67,1.54-7.9,6.05-9.54,9.65-.42.91-1.87,9.84-3.65,7.37-.14-11.17-5.55-15.92-15.84-18.25-1.49-.34-1.67.65-1.44-1.89,8.94-.41,13.41-4.96,16.37-12.91.92-2.48-.06-6.99,2.82-6.29Z"/>
  <path class="st48" d="M115.09,265.1c-10.29.04-17.35,8.68-18.71,18.24-1.9-1.91-1.37-4.62-2.5-7.1-3.29-7.22-9.41-10.83-17.19-11.61,10.11-2.66,18.11-9.63,18.73-20.64,1.83,7.18,4.17,14.07,11.35,17.45,2.82,1.33,6.76,1.13,8.33,3.66Z"/>
  <path class="st51" d="M551.79,493.47c-5.59-.43-12.25,3.66-15.2,8.32-2.09,3.29-2.05,7.68-4.94,9.92-.25-10.34-8.56-17.26-18.26-18.71,10.49-2.16,17.72-8.7,18.73-19.68,2.17,4.8,3.19,10.15,7.15,13.97l12.52,6.18Z"/>
  <path class="st28" d="M746.63,845.63c-141.6,2.62-287.33,1.94-429.02,0h429.02Z"/>
  <path class="st24" d="M118.93,516.52c-1.83,2.75-5.97,2.22-8.97,3.97-4.89,2.86-8.41,10.73-9.27,16.16l-2.39-7.66c-2.75-6.25-8.91-10.49-15.84-10.57-.71-3.11,2.63-1.5,4.83-2.36,8.18-3.2,11.32-8.12,12.46-16.82l4.95,9.91c3.1,4.65,8.71,7.24,14.23,7.37Z"/>
  <path class="st20" d="M681.35,556.81c.44.48,2.28,10.57,4.79,12.01l12.49,7.18c-10.04.2-14.53,5.96-17.29,14.9-.45,1.45,1.11,2.87-1.91,2.38-.14-10.37-5.86-14.57-14.91-17.26-1.38-.41-1.69.59-1.41-1.93,10.63-.62,13.63-6.88,16.3-15.87.3-1.02.37-3.09,1.93-1.41Z"/>
  <path class="st20" d="M488.44,203.69c-.22,6.3,3.58,10.68,8.32,14.24l7.03,3.03c-5.03,1.07-8.85,2.49-11.93,6.79-2.16,3.01-2.54,7.22-5.33,9.53.36-4.96-3.53-11.46-7.76-13.84-2.55-1.44-6.28-.79-7.61-3.42,10.43-.54,12.76-6.22,15.34-14.91.41-1.38-.59-1.69,1.93-1.41Z"/>
  <path class="st39" d="M132.37,183.55c.49,3.01-.91,1.46-2.37,1.91-8.49,2.58-12.75,7.33-13.96,16.32l-2.49-7.57c-2.82-5.39-7.54-8.87-13.82-8.74-.62-2.86,3.61-1.98,6-3.12,5.9-2.84,8.65-7.72,9.38-14.14l6.22,11.52c3.34,2.13,6.9,4.35,11.05,3.83Z"/>
  <path class="st20" d="M445.25,30.97c-.58,5.61,2.93,10.28,7.53,13.11,2.09,1.28,4.9.99,5.91,3.19-7.11-.12-13.57,6.34-13.45,13.44l-6.19-9.64-9.17-5.23c9.2-1.74,11-5.32,13.42-13.47.41-1.38-.59-1.69,1.93-1.41Z"/>
  <path class="st2" d="M413.35,466.79c11.34-2.14,15.02,15.44,4.35,17.85-13.36,3.01-15.76-15.7-4.35-17.85Z"/>
  <path class="st20" d="M247.53,150.92c-1.81,1.76-2.76-4.12-3.63-5.48-3.14-4.94-5.8-5.17-10.75-7.48,6.65-2,12.56-6.31,12.48-13.91,2.74,3.03,2.76,6.58,6.19,9.63,3.03,2.69,5.18,2.26,8.18,4.28-5.81,2.45-8.19,3.04-11.4,8.74-.76,1.35-.91,4.06-1.07,4.21Z"/>
  <path class="st27" d="M115.79,317.11c11.19-2.44,15.19,13.83,6.07,16.65-13.5,4.18-15.23-14.65-6.07-16.65Z"/>
  <path class="st57" d="M636.26,527.07c.59,3.01-3.36,1.57-6.12,3-4,2.07-6.53,7.96-6.37,12.35-2.62-1.33-1.98-5.05-3.42-7.6-1.95-3.47-6.86-6.67-10.97-5.83-.49-2.92,4.06-1.98,6.64-3.43,4.96-2.8,5.14-7.39,7.28-11.91,1.05,6.35,5.78,13.69,12.96,13.43Z"/>
  <path class="st20" d="M150.6,45.38c-2.05,2.9-6.09,2.51-8.66,5.25-1.86,1.99-3.02,5.47-2.87,8.18-3.02.59-1.57-3.36-3-6.12-3.21-6.2-9.25-4.53-10.43-5.4-1.93-1.42,5.15-3.39,6.08-3.99,4.57-2.97,4.62-5.95,6.88-10.39.58,6.39,5.3,12.44,11.99,12.48Z"/>
  <path class="st44" d="M327.88,371.82c11.19-3.32,15.88,11.58,6.09,14.71-10.52,3.37-13.6-12.49-6.09-14.71Z"/>
  <path class="st25" d="M850.99,136.69c10.08-2.09,12.58,13.12,3.39,15.02-9.82,2.03-13.53-12.92-3.39-15.02Z"/>
  <path class="st59" d="M511.24,380.43c8.81-.79,11.62,14.78.7,15.24s-10.29-14.38-.7-15.24Z"/>
  <path class="st20" d="M597.86,632.6c-6.36-.15-8.88,3.72-10.55,9.14-1.41,4.6-2.01-.85-2.68-2.12-2.72-5.17-4.95-6.36-10.78-7.5,6.89-1.63,10.24-5.16,12-11.99,2.1,3.29,3.15,7.33,6.69,9.62,1.84,1.19,4.52.6,5.31,2.84Z"/>
  <path class="st49" d="M408.53,234.57c9.55-1.99,12.8,11.91,3.41,14.04-9.93,2.25-12.52-12.13-3.41-14.04Z"/>
  <path class="st10" d="M759.78,581c10-3,13.46,10.61,5.37,13.03-10.12,3.03-12.87-10.78-5.37-13.03Z"/>
  <path class="st32" d="M791.74,475.26c1.83,1.9-3.09,2.32-4.19,2.99-3.69,2.26-3.63,5.33-5.89,8.51-1.61-4.85-3.94-10.31-10.08-9.6-.69-2.96,2.47-1.61,4.55-2.64,3.49-1.73,4.88-5.09,5.06-8.86,1.63.09,1.08,2.69,2.03,4.19,3.01,4.74,8.01,4.88,8.52,5.41Z"/>
  <path class="st37" d="M590.89,50.34c5.54-1.16,10.5,4.95,6.03,9.92-7.52,8.38-15.94-7.84-6.03-9.92Z"/>
  <path class="st6" d="M165.96,235.36c-.01-.15-.81-.87-.96-2.88l.96,2.88Z"/>
  <path class="st58" d="M789.52,234.59c2.15-.65,7.8-.32,10.41-.23,13.05.48,26.28,2.25,39.32,2.91,28.39,1.43,56.91,2.38,85.38,3.88,6.55,1.23,3.62,13.44-3.82,11.57-24.6-1.75-49.28-3.46-73.91-4.87-7.7-.44-57.06-1.41-59.52-3.82s-1.18-8.44,2.12-9.44Z"/>
  <path class="st58" d="M780.9,269.15c13.7.15,27.38,1.96,41.03,2.71,16.96.94,33.98,1.83,50.87,2.88,6.62.41,18.94-2.9,16.82,8.08-.98,5.09-12.39,3.57-16.82,3.44-30.33-.96-60.73-5.14-91.11-5.82-5.7-1.71-6.06-8.74-.78-11.28Z"/>
  <path class="st58" d="M772.26,303.65c24.93,1.29,49.8,3.69,74.67,5.58,4.29.33,13.27-1.68,15.32,2.91,2.49,5.57-2.16,9.71-7.68,8.68l-81.53-5.84c-5.82-1.72-5.65-8.41-.79-11.33Z"/>
  <path class="st58" d="M765.55,338.23l59.11,4.79c4.6,2.92,2.85,10.97-2.74,11.29l-54.6-4.81c-6.61-1-7.45-8.31-1.77-11.26Z"/>
  <path class="st0" d="M546.03,797.66c.56.67.72,2,.96,2.88-3.53-.62-6.77.94-10.04,1-65.84,1.26-131.89,4.16-197.27,6.68-5.09.2-11.74.66-16.32-.96,4.42.32,9-.22,13.43,0l-5.76-.94c.44-7.65-.46-15.35-.41-22.97.01-2.1-1.3-.54-2.46-1.99.32.02.64-.02.96,0,18.48,1.1,39.44-1.43,58.03-1.96,45.49-1.29,90.9-2.17,136.38-3.76,1.83-.06,3.63.09,5.23-1,.78,7.02,4.91,13.59,10.1,18.21,1.85,1.64,5.91,3.33,7.17,4.82Z"/>
  <path class="st11" d="M546.99,800.54c1.3.23,10.1,5.36,10.55,4.8-1.38-5.36-2.14-17.87,3.31-21.17,8.67-5.25.88,6.68.54,10.13-.28,2.87-.09,8.43,1.86,10.61,3.19,3.57,11.4.13,14.89.44,1.98.18,3.39,2.62,5.3,2.39-11.01-9.19-17.12-21.65-15.09-36.22.14-.97,2.55-10.73,4.55-8.4.36.42-1.06,7.84-.83,10.91,1.07,14.32,8.46,26.88,21.61,33.09,10.05,4.75,11.58,1.32,19.76,2.23,3.21.36,6.48,3.29,9.36,4.16,13.52,4.12,32.22.81,45.13-4.34.3,3.02,2.35,3.16,4.8,1.92,1.14,3.62,12.98,4.34,16.31,5.76-1.44-3.97-3.1-6.03-2.49-10.57.4-2.93,4-12.28,7.75-11.5,3.86.8-3.36,9.02-3.36,12.96,0,1.94,2.6,9.12,4.34,9.12h14.88c-5.78-3.31-3.31-20.11,1.45-21.11s-.61,9.38-.28,12.67c.99,10.07,5.54,8.56,13.45,7.22s17.8-4.64,22.81-11.26c12.84,7.06,42.26,11.29,55.67,5.76.39-.16.71-.61.96-.96.3-.09.67.09.96,0,2.6-.77,3.59-1.35,5.76-2.88,8.28,2.72,16.53,6.41,24.95,8.64l-84.98.92c-41.34.21-87.59,6.72-128.61,3.92-15.17-1.04-25.22-8.33-41.18-8.63-73.08-1.36-146-.72-218.84-2.97-7.51-.23-15.09.25-22.59.04,65.38-2.52,131.43-5.42,197.27-6.68,3.26-.06,6.5-1.62,10.04-1Z"/>
  <path class="st56" d="M874.28,781.34c.77.57,7.53,7.78,8.11,8.68,3.54,5.42,3.51,22.61-1.39,26.82-5.68,4.88-37.08.21-45.11-1.92-8.43-2.23-16.67-5.92-24.95-8.64,10.36-7.31,14.77-18.51,13.39-31.09.14-1.16,1.48-.37,1.97-.57,12.4-5.1,25.31-3.62,37.4,1.47,2.03.86,9.21,4.22,10.59,5.24Z"/>
  <path class="st11" d="M207.23,782.3c30.16,6.23,61.28,13.4,91.53,20.28,1.59.36,3.32.37,4.45,1.79-25-2.32-50.26-3.55-75.33-5.77-23.08-2.04-51.41-2.94-73.67-6.95-2.9-.52-17.41-3.76-10.05-7.64s53.85-3.62,63.07-1.71Z"/>
  <path class="st13" d="M446.02,535.02c6.72-.17,19.44-1.41,25.43-.08,2.97.66,4.75,3.21,5.54,5.98l33.46,173.88c.17,12.93-11.92,9.39-20.6,9.89-72.69,4.2-146.01,4.81-218.78,6.77-9.12.25-19.55,2.36-28.75.9-3.8-.61-7.38-4.53-7.95-8.36-9.11-54.9-22.67-109.21-31.65-164.1-1.74-10.67-2.97-14.51,9.76-15.59,13.17-1.12,28.02-.29,41.34-.89,64.07-2.89,128.16-6.78,192.2-8.39ZM287.85,589.42c-2.58-2.89-6.08-2.78-9.16-5.7-2.38-2.26-3.34-4.91-4.75-7.71-2.68,2.06-2.56,5.22-4.76,7.72-2.49,2.83-6.97,3.64-9.16,6.66,7.27,1.34,11.97,5.32,13.91,12.48,2.58-2.46,1.83-5.37,4.27-8.21,2.3-2.69,6.45-3.8,9.65-5.23ZM342.55,576.96c-1.72-2.14-2.9,4.79-3.43,5.69-3.19,5.4-10.23,6.04-10.96,6.8-1.66,1.74,4.56,3.01,6.08,3.99,5.33,3.41,5.15,8.19,6.41,9.43,1.94,1.92,2.62-4.31,3.42-5.68,2.1-3.61,6.88-6.19,10.95-6.8l-6.65-3.41c-4.49-1.05-5.44-9.52-5.83-10.01ZM450.05,634.54c-15.72-.88-27.79-13.29-29.26-28.79-2,3.33-1.84,7.24-3.34,11.05-3.2,8.12-10.08,13.45-17.99,16.56-2.73,1.07-6.61.54-7.95,3.08,15.17-.33,27.95,11.99,29.27,26.89,3.42-11.6,6.38-20.77,18.49-25.67l10.78-3.12ZM332,662.37c-17.09-2.23-25.71-12.16-28.31-28.81-2.67,16.87-10.28,26.02-27.36,29.28,16.37,3.75,23.15,8.41,26.9,24.95.34,1.49-.65,1.67,1.9,1.44.41-9.7,5.12-18.65,14.18-22.78l12.69-4.08ZM394.39,686.34c-4.34-4.47-10.67-4.89-11.53-12.46-3.76,5.34-6.02,10.64-13.42,11.52,2.69,3.2,6.02,2.05,9.15,5.71,1.93,2.26,2.78,4.86,3.34,7.7l5.22-8.67c2.08-1.79,4.33-3.81,7.24-3.8Z"/>
  <path class="st47" d="M290.49,311.41c3.19,3.21-.31,6.75-4.13,7.38-7.42,1.23-18.87.47-26.81,1.03-9.86.69-19.8,1.76-29.64,2.59-4.87-.51-4.81-7.46-.09-8.33l57.61-3.7c.99,0,2.37.34,3.06,1.04Z"/>
  <path class="st47" d="M264.1,290.29c.89-.88,2.81-1.06,4.06-1.19,18.82-2,38.05-1.41,56.87-3.6,12.45,9.66-7.69,8.02-13.65,8.41-11.74.78-23.75,2.49-35.48,2.91-2.64.09-9.06.45-11.07-.52-2.24-1.08-2.37-4.38-.73-6Z"/>
  <path class="st47" d="M261.74,246.2c3.53-.1,11.81-1.14,14.59.2,3.3,1.59,1.71,6.69-1.43,7.2l-48.05,2.94c-8.36-.8-8.03-7.44,1.13-8.58,9.66-1.2,23.77-1.47,33.76-1.75Z"/>
  <path class="st47" d="M204,291.15c1.25-.42,4.08-.41,5.19.32,2.25,1.48,3.69,27.74,1.97,31.78-1.57,2.03-5.11,1.89-6.32-.57-1.36-2.78-3.34-28.83-1.99-30.76.3-.43.67-.61,1.15-.77Z"/>
  <path class="st47" d="M243.5,290.34c2.43-.1,6.78-1.05,8.84.19,7.9,11.47-18.4,6.5-24.36,8.84-4.4-.46-5.14-6.45-.65-7.92,2.64-.86,12.46-.95,16.17-1.11Z"/>
  <path class="st47" d="M236.79,270.19c2.66-.13,8.72-1.05,10.76.19s2.15,5.44,0,6.74c-1.22.73-18.35,1.76-20.69,1.47-4.86-.59-4.19-5.88-1.4-7.25,1.12-.55,9.18-1.05,11.32-1.16Z"/>
  <path class="st47" d="M199.2,249.89c9.81-3.26,12.67,8.41,4.58,9.43s-7.28-8.53-4.58-9.43Z"/>
  <path class="st47" d="M208.92,280.23c-2.54,2.53-9.17,1.93-9.46-3.13-.6-10.74,16.37-3.73,9.46,3.13Z"/>
  <path class="st53" d="M808.05,748.72c-.25,6.05-.77,10.45,6.72,8.64.21.81,4,4.36,4.99,6.05,2.37,4.05,2.4,9.65,6.53,11.22-.48.2-1.83-.59-1.97.57,1.38,12.58-3.02,23.79-13.39,31.09-2.17,1.53-3.16,2.11-5.76,2.88h-21.58c-41.09-3.2-63.91-29.13-66.71-69.58-.84-12.19.94-23.84-1.23-36.19-.87-4.94-5.88-24.98-7.89-28.58-.26-.46-1.23-1.23-1.44-.95-.05,1.27.03,2.56,0,3.84-2.55-5.51,2.8-14.99,7.21-18.22,23.96-17.55,58.3,19.87,67.17,40.29,7.36,16.93,6.93,34.36,22.1,46.98,1.26,1.05,3.46,3.38,5.25,1.95Z"/>
  <path class="st56" d="M715.91,766.95c5.03,15.47,17.43,29.59,31.67,37.42-5.02,6.62-14.86,9.91-22.81,11.26s-12.45,2.85-13.45-7.22c-.32-3.29,4.83-13.63.28-12.67s-7.23,17.8-1.45,21.11h-14.88c-1.74,0-4.34-7.18-4.34-9.12,0-3.94,7.22-12.15,3.36-12.96-3.75-.78-7.36,8.56-7.75,11.5-.62,4.54,1.05,6.61,2.49,10.57-3.33-1.42-15.16-2.14-16.31-5.76-1.28-4.04-.52-9.39.47-13.44,4.7-19.14,24.34-29.06,42.72-30.7Z"/>
  <path class="st30" d="M805.17,809.17c-.29.09-.66-.09-.96,0-.44.13-.79.54-.96.96-13.4,5.53-42.83,1.31-55.67-5.76-14.24-7.83-26.65-21.95-31.67-37.42-6.24-19.23-3.69-34.9-4.81-54.2-.65-11.18-5.07-24.7-4.79-35.03.03-1.28-.04-2.57,0-3.84.21-.28,1.18.49,1.44.95,2.01,3.6,7.02,23.64,7.89,28.58,2.17,12.36.39,24.01,1.23,36.19,2.8,40.45,25.62,66.38,66.71,69.57h21.58Z"/>
  <path class="st36" d="M808.05,748.72c.58-14.35,7.67-25.91,18.22-35.03,9.44-8.16,23.83-17.16,36.48-11.97l-14.73,5.88c-14.4,7.28-27.26,17.37-31.6,33.66-1.07,4-2.64,12.31-1.65,16.1-7.49,1.82-6.96-2.59-6.72-8.64Z"/>
  <path class="st45" d="M661.68,705.56c2.52-.01,4.21,13.96,15.28,12.41,6.86-.96,9.63-9.27,12.59-9.59,7.2-.78,1.71,8.74-1.96,11.55-8.11,6.22-20.72,5.84-25.96-3.79-1.2-2.2-4.16-10.56.05-10.59Z"/>
  <path class="st33" d="M528.76,765.99c-.13,2.57-.28,6.16,0,8.64-1.6,1.09-3.41.94-5.23,1-45.47,1.59-90.89,2.47-136.38,3.76-18.59.53-39.55,3.06-58.03,1.96l-.96-9.59c2.69-.21,5.56.29,8.23.03,1.22-.12,2.2-.99,2.32-1,53.09-3.51,110.21-3.42,163.6-4.84,8.79-.23,17.65.25,26.43.04Z"/>
  <path class="st50" d="M338.72,770.79c-.13,0-1.1.88-2.32,1-2.67.26-5.54-.25-8.23-.03l.96,9.59c-.32-.02-.64.02-.96,0-19.65-1.46-49.1-9.39-69.11-13.9-6.75-1.52-13.65-2.97-20.36-4.6-.96-.23-2.89-.29-2.66-1.63l102.69,9.59Z"/>
  <path class="st40" d="M606.74,775.82c-6.56,6.77,5.92,20.22,11.36,24.15,2.01,1.46,10.64,5.75,11,6.27.82,1.16.7,2.6-.5,3.44-5.31,3.71-23.85-12.51-26.43-17.78-2.28,4.71-3.69,13.14-10.07,13.42,1.25-9.9,7.79-18.4,5.73-29.24-.33-1.73-6.12-7.54-7.82-10.41-5.93-10.01-7.09-20.12,7.36-21.75,23.18-2.62,42.59,8.73,17.1,27.65-1.99,1.48-6.95,3.44-7.74,4.25Z"/>
  <path class="st47" d="M254.01,417.91c3.14-.51,7.4-.85,7.96,3.19,1.13,8.24-17.21,9.44-19.7,14.83s8.64,20.48,9.89,26.6c1.14,5.6-4.29,8.91-9.01,6.06-4.01-2.42-9.67-23.36-15.22-15.34-2.57,3.71-5.41,24.51-14.56,17.29-5.48-4.33,6.75-26.47,5.24-32.03s-20.02-4.48-21.81-10.97c-2.99-10.87,21.47-2.68,26.38-2.31,13.3.98,19.39-5.47,30.82-7.32Z"/>
  <path class="st47" d="M227.14,403.48c11.8-2.3,16.08,14.21,4.36,16.87-13.41,3.04-18.09-14.2-4.36-16.87Z"/>
  <path class="st47" d="M625.42,400.58c3.19-.96,5.98.76,5.96,4.15-.02,5.06-25.53,27.86-29.18,34.08-10.25,8.79-15.95-16.61-21.44-21.86-.95-2.57,1.8-5.66,4.21-6.01,7.02-1.03,9.02,13.11,12.42,16.34.96.91,1.31,1.22,2.7.85,3.45-.91,20.19-25.99,25.33-27.54Z"/>
  <path class="st47" d="M514.11,285.49c5.01-.85,18.26-.11,19.43,6.04,2.65,13.85-15.68.76-17.26,6.71-1.1,4.16,12.72,10.81,15.36,14.35,6.27,8.43,1.22,21.03-9.21,22.47-7.1.98-23.73.32-20.11-10.52,2.51-7.53,16.82,4.79,18.66-2.54.99-3.93-10.65-9.4-13.33-12.29-7.19-7.75-4.96-22.29,6.46-24.23Z"/>
  <path class="st47" d="M468.93,280.62c3.36-1.13,27.73.88,30.62,2.66,4.52,2.77,2.49,10.61-2.89,10.68-2.08.03-6.09-2.65-7.11.56l-3.04,34.38c-.49,5.75-12.39,3.16-13.29-.18l3.76-34.32c-.77-4.43-8.47-1.99-10.14-5.29-1.13-2.24-.5-7.62,2.09-8.49Z"/>
  <path class="st52" d="M495.16,93.35c2.52,4.47,18.17,34.93,20.73,35.46,1.4.29,2.45-1.56,3.11-2.52,6.71-9.71,12.27-22.66,18.39-32.95,5.1-.11,10.25.07,15.35,0l-.17,2.21c-9.95,15.91-19.03,33.72-29.56,49.14-1.68,2.47-3.9,7.56-7.2,7.24l-35.99-57.17c.13-2.2,12.76-1.48,15.33-1.43Z"/>
  <path class="st5" d="M495.16,93.35c3.18.06,8.91-.66,11.5.5,3.18,1.42,8.39,11.98,9.15,11.98,3.48.01,7.09-10.65,10.08-11.99,2.57-1.15,8.33-.43,11.5-.5-6.12,10.28-11.68,23.24-18.39,32.95-.66.95-1.7,2.81-3.11,2.52-2.56-.53-18.22-30.99-20.73-35.46Z"/>
  <path class="st17" d="M607.87,208.86c.47-.59,2.01.09,1.41-1.68-14.34-16.73-3.89-32.54,17.32-26.52,3.09-10.28,13.23-20.04,24-12.89,3.78,2.51,7,11.35,8.33,11.82,2.71.96,5.88-.62,8.35-.47,18.76,1.14,19.31,18.08,7.38,28.9,16.59,15.2,4.64,33.01-16.34,27.76-7.6,19.29-25.32,18.78-31.62-.97-20.11,5.94-32.8-8.29-18.83-25.94ZM652.57,182.58c-2.14-14.23-16.48-14.36-20.18-.51,2.44.53,7.48,3.98,9.3,4.14,2.31.21,7.55-4.35,10.88-3.64ZM615.87,184.68c-10.53,1.16-8.42,12.66-2.08,17.99,1.08.27,8.12-4.77,8.55-5.68,1.25-2.61-.2-7.39,2.36-10.1-.11-1.4-7.2-2.39-8.83-2.21ZM662.4,197.71c.25.44,7.77,5.85,8.4,5.57,5.75-3.79,9.45-16.33.42-17.75-1.88-.3-8.74-.43-10.06.38-1.02.63.72,10.89,1.24,11.8ZM635.29,190.25c.67-.97-4.32-3.57-5.75-2.87l-.96,5.75,6.71-2.89ZM655.44,193.14c.5-7.19-1.53-5.94-6.7-3.83l6.7,3.83ZM642.49,192.54c-1.27,0-12.95,6.66-13.91,7.8-1.58,1.89-1.53,13.42-.08,15.42.73,1.01,12.75,7.06,14,7.06,1.49,0,13.69-7.06,14.38-8.59.99-2.2.97-12.09-.39-13.97-.47-.65-13.19-7.73-13.99-7.72ZM621.85,210.41l-.47-5.75c-4.27,2.26-4.69,4.32.47,5.75ZM624.74,229.6c-1.5-2.85-1.23-9.37-2.42-11.49-.89-1.6-7.29-4.38-8.62-6.69-11.39,10.96-4.14,22.6,11.04,18.18ZM662.38,217.34c-.26.46-1.58,8.85-1.76,10.34-.6,5.02,11.06,3.7,14.03-.45,4.16-5.81.17-11.68-4.34-15.81-.94,1.99-7.43,5.02-7.94,5.93ZM656.41,221.94c-6.55,3.36-12.41,3.03-1.93,6.71l1.93-6.71ZM634.33,224.82l-5.76-1.92,2.39,4.77,3.36-2.84ZM652.57,233.46c-3.18-.08-8.8-4.39-11.19-4.6-2.01-.18-6.74,3.37-8.99,4.15,4.47,14.27,15.2,14.7,20.19.45Z"/>
  <path class="st20" d="M343.29,55.21c38.38-5.23,68.76,39.35,43.4,71.22-29.38,36.9-90.96-2.22-74.35-46.5,4.48-11.94,18.24-22.98,30.95-24.71ZM354.77,72.42c-8.11,1.8-8.93,15.48-2.37,18.28,16.15,6.89,17.98-21.74,2.37-18.28Z"/>
  <path class="st41" d="M602.19,701.71c2.52-.55,3.28,6.82,7.7,7.66,7.91,1.51,9.32-7.67,11.48-7.65,4.82.04.15,12.72-6.94,14.16-8.23,1.67-17.54-6.02-12.24-14.17Z"/>
  <path class="st56" d="M679.44,626.86c4.2,31.57-27.09,50.46-29.74,80.14-1.14,12.76-.62,21.65,7.64,31.67,7.44,9.03,19.17,13.52,23.89,25.05,5.74,14.02-.88,11.94-7.01,20.56-4.78,6.72-7.1,16.73-6.3,24.89-12.91,5.15-31.6,8.45-45.13,4.34-2.88-.88-6.15-3.81-9.36-4.16-8.18-.91-9.71,2.52-19.76-2.23-13.15-6.21-20.53-18.77-21.61-33.09-.23-3.07,1.19-10.49.83-10.91-2-2.33-4.41,7.43-4.55,8.4-2.04,14.57,4.08,27.03,15.09,36.22-1.91.24-3.32-2.21-5.3-2.39-3.49-.31-11.71,3.13-14.89-.44-1.95-2.19-2.14-7.75-1.86-10.61.34-3.45,8.13-15.38-.54-10.13-5.45,3.3-4.69,15.81-3.31,21.17-.44.57-9.25-4.57-10.55-4.8-.24-.88-.4-2.21-.96-2.88-.29-13.53,5.54-26.7,16.4-34.94,3.22-2.44,10.29-4.78,11.89-6.34,2.03-1.98,4.56-9.74,7.69-13.42,3.44-4.04,9.34-7.78,13.93-10.55,8.82-5.32,27.16-11.5,32.48-19.83,5.58-8.74,4.51-19.62,6.18-29.33,3.65-21.24,12.1-42.92,28.53-57.36,5.99-.33,10.75.49,16.32.96ZM606.74,775.82c.78-.81,5.75-2.78,7.74-4.25,25.49-18.92,6.08-30.27-17.1-27.65-14.45,1.63-13.29,11.74-7.36,21.75,1.7,2.87,7.49,8.68,7.82,10.41,2.06,10.84-4.48,19.34-5.73,29.24,6.38-.28,7.79-8.72,10.07-13.42,2.57,5.27,21.11,21.49,26.43,17.78,1.2-.84,1.32-2.28.5-3.44-.36-.52-8.99-4.82-11-6.27-5.44-3.93-17.92-17.38-11.36-24.15Z"/>
  <path class="st53" d="M803.25,810.13c.17-.42.52-.83.96-.96-.25.35-.57.8-.96.96Z"/>
  <path class="st47" d="M450.05,634.54l-10.78,3.12c-12.11,4.9-15.07,14.06-18.49,25.67-1.33-14.89-14.11-27.22-29.27-26.89,1.34-2.54,5.22-2.01,7.95-3.08,7.91-3.11,14.79-8.44,17.99-16.56,1.51-3.82,1.34-7.72,3.34-11.05,1.48,15.5,13.55,27.91,29.26,28.79Z"/>
  <path class="st47" d="M332,662.37l-12.69,4.08c-9.06,4.13-13.77,13.08-14.18,22.78-2.55.23-1.56.05-1.9-1.44-3.76-16.54-10.53-21.2-26.9-24.95,17.08-3.26,24.7-12.4,27.36-29.28,2.6,16.65,11.21,26.58,28.31,28.81Z"/>
  <path class="st47" d="M287.85,589.42c-3.2,1.43-7.35,2.54-9.65,5.23-2.44,2.84-1.68,5.75-4.27,8.21-1.94-7.17-6.64-11.14-13.91-12.48,2.2-3.02,6.67-3.83,9.16-6.66,2.2-2.5,2.08-5.66,4.76-7.72,1.41,2.8,2.38,5.45,4.75,7.71,3.07,2.92,6.57,2.82,9.16,5.7Z"/>
  <path class="st47" d="M342.55,576.96c.39.49,1.34,8.96,5.83,10.01l6.65,3.41c-4.08.62-8.85,3.19-10.95,6.8-.8,1.37-1.48,7.6-3.42,5.68-1.25-1.24-1.07-6.03-6.41-9.43-1.53-.98-7.74-2.25-6.08-3.99.73-.76,7.77-1.4,10.96-6.8.53-.9,1.71-7.83,3.43-5.69Z"/>
  <path class="st47" d="M394.39,686.34c-2.91,0-5.16,2.01-7.24,3.8l-5.22,8.67c-.56-2.84-1.41-5.44-3.34-7.7-3.12-3.67-6.45-2.51-9.15-5.71,7.4-.88,9.66-6.18,13.42-11.52.86,7.57,7.19,7.99,11.53,12.46Z"/>
  <path class="st18" d="M642.49,192.54c.8,0,13.52,7.08,13.99,7.72,1.36,1.88,1.38,11.77.39,13.97-.69,1.53-12.88,8.59-14.38,8.59-1.25,0-13.27-6.05-14-7.06-1.45-2-1.5-13.53.08-15.42.96-1.15,12.64-7.8,13.91-7.8ZM639.81,201.01c-7.67,2.33-5.15,15.63,3.41,14.06,9.43-1.74,5.94-16.9-3.41-14.06Z"/>
  <path class="st21" d="M662.38,217.34c.51-.9,7-3.94,7.94-5.93,4.51,4.13,8.5,10,4.34,15.81-2.97,4.15-14.63,5.47-14.03.45.18-1.48,1.5-9.88,1.76-10.34Z"/>
  <path class="st21" d="M624.74,229.6c-15.18,4.42-22.43-7.22-11.04-18.18,1.34,2.31,7.73,5.09,8.62,6.69,1.19,2.12.92,8.65,2.42,11.49Z"/>
  <path class="st55" d="M662.4,197.71c-.52-.91-2.27-11.17-1.24-11.8,1.32-.81,8.19-.68,10.06-.38,9.03,1.42,5.33,13.96-.42,17.75-.63.28-8.15-5.13-8.4-5.57Z"/>
  <path class="st55" d="M615.87,184.68c1.63-.18,8.72.81,8.83,2.21-2.56,2.7-1.11,7.49-2.36,10.1-.44.91-7.47,5.94-8.55,5.68-6.34-5.32-8.45-16.83,2.08-17.99Z"/>
  <path class="st15" d="M652.57,233.46c-4.99,14.25-15.71,13.81-20.19-.45,2.26-.78,6.99-4.33,8.99-4.15,2.39.21,8.02,4.53,11.19,4.6Z"/>
  <path class="st15" d="M652.57,182.58c-3.33-.72-8.58,3.84-10.88,3.64-1.82-.16-6.86-3.61-9.3-4.14,3.71-13.86,18.04-13.72,20.18.51Z"/>
  <path class="st4" d="M635.29,190.25l-6.71,2.89.96-5.75c1.43-.7,6.41,1.9,5.75,2.87Z"/>
  <path class="st26" d="M656.41,221.94l-1.93,6.71c-10.48-3.67-4.62-3.35,1.93-6.71Z"/>
  <path class="st35" d="M655.44,193.14l-6.7-3.83c5.17-2.11,7.2-3.36,6.7,3.83Z"/>
  <path class="st1" d="M621.85,210.41c-5.16-1.42-4.74-3.49-.47-5.75l.47,5.75Z"/>
  <polygon class="st42" points="634.33 224.82 630.97 227.66 628.57 222.9 634.33 224.82"/>
  <path class="st47" d="M354.77,72.42c15.61-3.46,13.77,25.17-2.37,18.28-6.56-2.8-5.74-16.48,2.37-18.28Z"/>
  <path class="st38" d="M639.81,201.01c9.35-2.84,12.84,12.32,3.41,14.06-8.56,1.58-11.08-11.73-3.41-14.06Z"/>
</svg>